<?xml version="1.0" encoding="UTF-8"?>
<svg width="9px" height="5px" viewBox="0 0 9 5" version="1.1" xmlns="http://www.w3.org/2000/svg" xmlns:xlink="http://www.w3.org/1999/xlink">
    <!-- Generator: Sketch 47.1 (45422) - http://www.bohemiancoding.com/sketch -->
    <title></title>
    <desc>Created with Sketch.</desc>
    <defs></defs>
    <g id="Page-1" stroke="none" stroke-width="1" fill="none" fill-rule="evenodd">
        <g id="Недвижимость-1" transform="translate(-709.000000, -1033.000000)" fill="#747474">
            <g id="Group-5-Copy" transform="translate(536.000000, 1017.000000)">
                <path d="M181.320312,16.5703125 C181.372396,16.6223961 181.398438,16.6822913 181.398438,16.75 C181.398438,16.8177087 181.372396,16.8776039 181.320312,16.9296875 L177.679688,20.5703125 C177.627604,20.6223961 177.567709,20.6484375 177.5,20.6484375 C177.432291,20.6484375 177.372396,20.6223961 177.320312,20.5703125 L173.679688,16.9296875 C173.627604,16.8776039 173.601562,16.8177087 173.601562,16.75 C173.601562,16.6822913 173.627604,16.6223961 173.679688,16.5703125 L174.070312,16.1796875 C174.122396,16.1276039 174.182291,16.1015625 174.25,16.1015625 C174.317709,16.1015625 174.377604,16.1276039 174.429688,16.1796875 L177.5,19.25 L180.570312,16.1796875 C180.622396,16.1276039 180.682291,16.1015625 180.75,16.1015625 C180.817709,16.1015625 180.877604,16.1276039 180.929688,16.1796875 L181.320312,16.5703125 Z" id=""></path>
            </g>
        </g>
    </g>
</svg>