<?xml version="1.0" encoding="UTF-8"?>
<svg width="69px" height="69px" viewBox="0 0 69 69" version="1.1" xmlns="http://www.w3.org/2000/svg" xmlns:xlink="http://www.w3.org/1999/xlink">
    <!-- Generator: Sketch 47.1 (45422) - http://www.bohemiancoding.com/sketch -->
    <title>1-11</title>
    <desc>Created with Sketch.</desc>
    <defs>
        <linearGradient x1="-7.75513253%" y1="13.8653445%" x2="94.705661%" y2="97.1338205%" id="linearGradient-1">
            <stop stop-color="#F3AF69" offset="0%"></stop>
            <stop stop-color="#FA5B5B" offset="100%"></stop>
        </linearGradient>
    </defs>
    <g id="Page-1" stroke="none" stroke-width="1" fill="none" fill-rule="evenodd">
        <g id="Страница-Квартиры" transform="translate(-99.000000, -1211.000000)" fill-rule="nonzero">
            <g id="1-11" transform="translate(99.000000, 1211.000000)">
                <path d="M34.4485075,68.7425373 C34.4485075,68.7425373 34.4485075,68.7425373 34.4485075,68.7425373 C15.5507463,68.6910448 0.257462687,53.2432836 0.308955224,34.3455224 C0.360447761,25.1798507 3.96492537,16.580597 10.4529851,10.1440299 C16.8895522,3.75895522 25.488806,0.257462687 34.5514925,0.257462687 C34.6029851,0.257462687 34.6544776,0.257462687 34.7059701,0.257462687 C53.6037313,0.308955224 68.8970149,15.7567164 68.8455224,34.6544776 C68.7940299,50.8746269 57.208209,64.9320896 41.3485075,68.1246269 C40.7820896,68.2276119 40.2156716,67.8671642 40.1126866,67.3007463 C40.0097015,66.7343284 40.3701493,66.1679104 40.9365672,66.0649254 C55.8179104,63.0783582 66.6828358,49.8447761 66.7343284,34.6544776 C66.7858209,16.9410448 52.419403,2.42014925 34.7059701,2.36865672 C34.6544776,2.36865672 34.6029851,2.36865672 34.6029851,2.36865672 C16.8895522,2.31716418 2.47164179,16.6835821 2.42014925,34.3970149 C2.36865672,51.8014925 16.1686567,66.0649254 33.4186567,66.6828358 L33.4186567,62.7179104 C33.4186567,62.4604478 33.5216418,62.1514925 33.7276119,61.9970149 C33.9335821,61.7910448 34.1910448,61.6880597 34.4485075,61.6880597 C34.5,61.6880597 34.5,61.6880597 34.5514925,61.6880597 C41.7604478,61.6880597 48.5574627,58.9074627 53.6552239,53.8097015 C58.8044776,48.7119403 61.6365672,41.9149254 61.6880597,34.6544776 C61.7395522,19.6701493 49.638806,7.46641791 34.6544776,7.41492537 C34.6029851,7.41492537 34.6029851,7.41492537 34.5514925,7.41492537 C19.6186567,7.41492537 7.46641791,19.5156716 7.41492537,34.4485075 C7.36343284,47.630597 16.6835821,58.8559701 29.608209,61.2246269 C30.1746269,61.3276119 30.5350746,61.8940299 30.4320896,62.4604478 C30.3291045,63.0268657 29.7626866,63.3873134 29.1962687,63.2843284 C15.2932836,60.7097015 5.20074627,48.6089552 5.25223881,34.3970149 C5.30373134,18.3313433 18.4343284,5.25223881 34.5,5.25223881 C34.5514925,5.25223881 34.5514925,5.25223881 34.6029851,5.25223881 C50.7201493,5.30373134 63.7992537,18.4858209 63.7477612,34.6029851 C63.6962687,42.4298507 60.658209,49.741791 55.0970149,55.2514925 C49.7932836,60.5037313 42.841791,63.4902985 35.4268657,63.6962687 L35.4268657,67.7126866 C35.4268657,67.9701493 35.3238806,68.2791045 35.1179104,68.4335821 C35.0149254,68.6395522 34.7059701,68.7425373 34.4485075,68.7425373 Z" id="Shape" fill="#F86B65"></path>
                <path d="M48.3514925,46.0343284 C47.7850746,46.0343284 47.2186567,45.8798507 46.7037313,45.5708955 L32.9552239,37.1776119 C31.9768657,36.611194 31.4104478,35.5813433 31.4104478,34.5 L31.4104478,24.5104478 C31.4104478,22.7597015 32.8007463,21.369403 34.5514925,21.369403 C36.3022388,21.369403 37.6925373,22.7597015 37.6925373,24.5104478 L37.6925373,32.6977612 L49.9477612,40.1641791 C51.4410448,41.0910448 51.9044776,42.9962687 50.9776119,44.4895522 C50.4626866,45.519403 49.4328358,46.0343284 48.3514925,46.0343284 Z" id="Shape" fill="url(#linearGradient-1)"></path>
                <g id="Group" transform="translate(8.753731, 8.753731)" fill="#F86B65">
                    <path d="M25.8492537,5.92164179 C25.2828358,5.92164179 24.819403,5.45820896 24.819403,4.89179104 L24.819403,1.13283582 C24.819403,0.56641791 25.2828358,0.102985075 25.8492537,0.102985075 C26.4156716,0.102985075 26.8791045,0.56641791 26.8791045,1.13283582 L26.8791045,4.89179104 C26.8791045,5.45820896 26.4156716,5.92164179 25.8492537,5.92164179 Z" id="Shape"></path>
                    <path d="M25.8492537,51.4410448 C25.2828358,51.4410448 24.819403,50.9776119 24.819403,50.411194 L24.819403,46.6522388 C24.819403,46.0858209 25.2828358,45.6223881 25.8492537,45.6223881 C26.4156716,45.6223881 26.8791045,46.0858209 26.8791045,46.6522388 L26.8791045,50.411194 C26.8791045,50.9776119 26.4156716,51.4410448 25.8492537,51.4410448 Z" id="Shape"></path>
                    <path d="M50.4626866,26.7761194 L46.7037313,26.7761194 C46.1373134,26.7761194 45.6738806,26.3126866 45.6738806,25.7462687 C45.6738806,25.1798507 46.1373134,24.7164179 46.7037313,24.7164179 L50.4626866,24.7164179 C51.0291045,24.7164179 51.4925373,25.1798507 51.4925373,25.7462687 C51.4925373,26.3126866 51.0291045,26.7761194 50.4626866,26.7761194 Z" id="Shape"></path>
                    <path d="M4.94328358,26.7761194 L1.18432836,26.7761194 C0.617910448,26.7761194 0.154477612,26.3126866 0.154477612,25.7462687 C0.154477612,25.1798507 0.617910448,24.7164179 1.18432836,24.7164179 L4.94328358,24.7164179 C5.50970149,24.7164179 5.97313433,25.1798507 5.97313433,25.7462687 C5.97313433,26.3126866 5.50970149,26.7761194 4.94328358,26.7761194 Z" id="Shape"></path>
                    <path d="M37.3835821,6.74552239 C37.2291045,6.74552239 37.0231343,6.69402985 36.8686567,6.59104478 C36.3537313,6.28208955 36.1992537,5.6641791 36.508209,5.14925373 L37.280597,3.8619403 C37.5895522,3.34701493 38.2074627,3.19253731 38.7223881,3.50149254 C39.2373134,3.81044776 39.391791,4.42835821 39.0828358,4.94328358 L38.3104478,6.23059701 C38.1044776,6.59104478 37.7440299,6.74552239 37.3835821,6.74552239 Z" id="Shape"></path>
                    <path d="M13.4910448,48.1455224 C13.3365672,48.1455224 13.130597,48.0940299 12.9761194,47.9910448 C12.461194,47.6820896 12.3067164,47.0641791 12.6156716,46.5492537 L13.3880597,45.2619403 C13.6970149,44.7470149 14.3149254,44.5925373 14.8298507,44.9014925 C15.3447761,45.2104478 15.4992537,45.8283582 15.1902985,46.3432836 L14.4179104,47.630597 C14.2119403,47.9395522 13.8514925,48.1455224 13.4910448,48.1455224 Z" id="Shape"></path>
                    <path d="M45.8798507,15.241791 C45.519403,15.241791 45.1589552,15.0358209 44.9529851,14.7268657 C44.6440299,14.2119403 44.85,13.5940299 45.3134328,13.2850746 L46.6007463,12.5126866 C47.1156716,12.2037313 47.7335821,12.4097015 48.0425373,12.8731343 C48.3514925,13.3880597 48.1455224,14.0059701 47.6820896,14.3149254 L46.3947761,15.0873134 C46.2402985,15.1902985 46.0343284,15.241791 45.8798507,15.241791 Z" id="Shape"></path>
                    <path d="M4.47985075,39.1343284 C4.11940299,39.1343284 3.75895522,38.9283582 3.55298507,38.619403 C3.24402985,38.1044776 3.45,37.4865672 3.91343284,37.1776119 L5.20074627,36.4052239 C5.71567164,36.0962687 6.33358209,36.3022388 6.64253731,36.7656716 C6.95149254,37.280597 6.74552239,37.8985075 6.28208955,38.2074627 L4.99477612,38.9798507 C4.84029851,39.0828358 4.6858209,39.1343284 4.47985075,39.1343284 Z" id="Shape"></path>
                    <path d="M5.81865672,15.1902985 C5.6641791,15.1902985 5.45820896,15.138806 5.30373134,15.0358209 L4.01641791,14.2634328 C3.50149254,13.9544776 3.34701493,13.3365672 3.65597015,12.8216418 C3.96492537,12.3067164 4.58283582,12.1522388 5.09776119,12.461194 L6.38507463,13.2335821 C6.9,13.5425373 7.05447761,14.1604478 6.74552239,14.6753731 C6.53955224,14.9843284 6.17910448,15.1902985 5.81865672,15.1902985 Z" id="Shape"></path>
                    <path d="M47.1156716,39.1343284 C46.961194,39.1343284 46.7552239,39.0828358 46.6007463,38.9798507 L45.3134328,38.2074627 C44.7985075,37.8985075 44.6440299,37.280597 44.9529851,36.7656716 C45.2619403,36.2507463 45.8798507,36.0962687 46.3947761,36.4052239 L47.6820896,37.1776119 C48.1970149,37.4865672 48.3514925,38.1044776 48.0425373,38.619403 C47.8365672,38.9798507 47.4761194,39.1343284 47.1156716,39.1343284 Z" id="Shape"></path>
                    <path d="M14.2634328,6.74552239 C13.9029851,6.74552239 13.5425373,6.53955224 13.3365672,6.23059701 L12.5641791,4.94328358 C12.2552239,4.42835821 12.461194,3.81044776 12.9246269,3.50149254 C13.4395522,3.19253731 14.0574627,3.39850746 14.3664179,3.8619403 L15.138806,5.14925373 C15.4477612,5.6641791 15.241791,6.28208955 14.7783582,6.59104478 C14.6238806,6.74552239 14.4179104,6.74552239 14.2634328,6.74552239 Z" id="Shape"></path>
                    <path d="M38.1559701,48.1455224 C37.7955224,48.1455224 37.4350746,47.9395522 37.2291045,47.630597 L36.4567164,46.3432836 C36.1477612,45.8283582 36.3537313,45.2104478 36.8171642,44.9014925 C37.3320896,44.5925373 37.95,44.7985075 38.2589552,45.2619403 L39.0313433,46.5492537 C39.3402985,47.0641791 39.1343284,47.6820896 38.6708955,47.9910448 C38.5164179,48.0940299 38.3104478,48.1455224 38.1559701,48.1455224 Z" id="Shape"></path>
                </g>
            </g>
        </g>
    </g>
</svg>