<?xml version="1.0" encoding="UTF-8"?>
<svg width="18px" height="18px" viewBox="0 0 18 18" version="1.1" xmlns="http://www.w3.org/2000/svg" xmlns:xlink="http://www.w3.org/1999/xlink">
    <!-- Generator: Sketch 47.1 (45422) - http://www.bohemiancoding.com/sketch -->
    <title></title>
    <desc>Created with Sketch.</desc>
    <defs></defs>
    <g id="Page-1" stroke="none" stroke-width="1" fill="none" fill-rule="evenodd">
        <g id="Главная" transform="translate(-902.000000, -3838.000000)" fill="#FFFFFF">
            <g id="Group-4" transform="translate(0.000000, 3769.000000)">
                <g id="Group-3" transform="translate(826.000000, 69.000000)">
                    <path d="M89.92,0 C90.8133378,0 91.5733302,0.3199968 92.2,0.96 C92.8266698,1.6000032 93.14,2.353329 93.14,3.22 L93.14,13.94 C93.14,14.8200044 92.8266698,15.5733302 92.2,16.2 C91.5733302,16.8266698 90.8133378,17.1466666 89.92,17.16 L87.84,17.16 L87.84,10.5 L90.06,10.5 L90.38,7.92 L87.84,7.92 L87.84,6.26 C87.84,5.8466646 87.9266658,5.540001 88.1,5.34 C88.2733342,5.139999 88.6133308,5.0333334 89.12,5.02 L90.48,5 L90.48,2.7 C90.013331,2.633333 89.346671,2.6 88.48,2.6 C87.479995,2.6 86.6733364,2.8933304 86.06,3.48 C85.4466636,4.0666696 85.1466666,4.9133278 85.16,6.02 L85.16,7.92 L82.92,7.92 L82.92,10.5 L85.16,10.5 L85.16,17.16 L79.22,17.16 C78.3266622,17.16 77.5666698,16.8400032 76.94,16.2 C76.3133302,15.5599968 76,14.806671 76,13.94 L76,3.22 C76,2.3399956 76.3133302,1.5866698 76.94,0.96 C77.5666698,0.3333302 78.3266622,0.0133334 79.22,0 L89.92,0 Z" id=""></path>
                </g>
            </g>
        </g>
    </g>
</svg>