<?xml version="1.0" encoding="UTF-8"?>
<svg width="18px" height="18px" viewBox="0 0 18 18" version="1.1" xmlns="http://www.w3.org/2000/svg" xmlns:xlink="http://www.w3.org/1999/xlink">
    <!-- Generator: Sketch 47.1 (45422) - http://www.bohemiancoding.com/sketch -->
    <title></title>
    <desc>Created with Sketch.</desc>
    <defs></defs>
    <g id="Page-1" stroke="none" stroke-width="1" fill="none" fill-rule="evenodd">
        <g id="Главная" transform="translate(-878.000000, -3838.000000)" fill="#FFFFFF">
            <g id="Group-4" transform="translate(0.000000, 3769.000000)">
                <g id="Group-3" transform="translate(826.000000, 69.000000)">
                    <path d="M65.8,8.6 C65.8,8.2533316 65.7600004,7.9200016 65.68,7.6 L69.2,7.6 L69.2,14.48 C69.2,15.2266704 68.9400026,15.866664 68.42,16.4 C67.8999974,16.933336 67.2666704,17.2 66.52,17.2 L54.68,17.2 C53.9333296,17.2 53.3000026,16.933336 52.78,16.4 C52.2599974,15.866664 52,15.2266704 52,14.48 L52,7.6 L55.48,7.6 C55.4266664,8.0266688 55.4,8.3599988 55.4,8.6 C55.4,10.0133404 55.9066616,11.2333282 56.92,12.26 C57.9333384,13.2866718 59.1533262,13.8 60.58,13.8 C62.0066738,13.8 63.2333282,13.2866718 64.26,12.26 C65.2866718,11.2333282 65.8,10.0133404 65.8,8.6 Z M66.52,0 C67.2666704,0 67.8999974,0.2599974 68.42,0.78 C68.9400026,1.3000026 69.2,1.9333296 69.2,2.68 L69.2,5.6 L64.84,5.6 C63.7999948,4.133326 62.3866756,3.4 60.6,3.4 C58.7599908,3.4 57.3466716,4.133326 56.36,5.6 L52,5.6 L52,2.68 C52,1.9333296 52.2599974,1.3000026 52.78,0.78 C53.3000026,0.2599974 53.9333296,0 54.68,0 L66.52,0 Z M67.8,3.32 L67.8,1.88 C67.8,1.5599984 67.6400016,1.4 67.32,1.4 L65.88,1.4 C65.5599984,1.4 65.4,1.5599984 65.4,1.88 L65.4,3.32 C65.4,3.4266672 65.4466662,3.5333328 65.54,3.64 C65.6333338,3.7466672 65.746666,3.8 65.88,3.8 L67.32,3.8 C67.6400016,3.8 67.8,3.6400016 67.8,3.32 Z M63.8,8.6 C63.8,9.4800044 63.4866698,10.2333302 62.86,10.86 C62.2333302,11.4866698 61.4800044,11.8 60.6,11.8 C59.7199956,11.8 58.9666698,11.4866698 58.34,10.86 C57.7133302,10.2333302 57.4,9.4733378 57.4,8.58 C57.4,7.6866622 57.7133302,6.9333364 58.34,6.32 C58.9666698,5.7066636 59.7199956,5.4 60.6,5.4 C61.4800044,5.4 62.2333302,5.7066636 62.86,6.32 C63.4866698,6.9333364 63.8,7.6933288 63.8,8.6 Z" id=""></path>
                </g>
            </g>
        </g>
    </g>
</svg>