<?xml version="1.0" encoding="UTF-8"?>
<svg width="77px" height="17px" viewBox="0 0 77 17" version="1.1" xmlns="http://www.w3.org/2000/svg" xmlns:xlink="http://www.w3.org/1999/xlink">
    <!-- Generator: Sketch 47.1 (45422) - http://www.bohemiancoding.com/sketch -->
    <title>Лого Юника-03</title>
    <desc>Created with Sketch.</desc>
    <defs></defs>
    <g id="Page-1" stroke="none" stroke-width="1" fill="none" fill-rule="evenodd">
        <g id="Главная" transform="translate(-26.000000, -15.000000)" fill-rule="nonzero">
            <g id="Group-6">
                <g id="Лого-Юника-03" transform="translate(26.000000, 15.000000)">
                    <path d="M40.3562616,0.0985507246 L37.2442116,0.0985507246 C37.1689201,0.0985507246 37.1187257,0.123188406 37.0434342,0.172463768 C36.9932398,0.22173913 36.9681426,0.271014493 36.9681426,0.344927536 C36.9681426,0.344927536 37.1689201,11.0130435 37.2191144,12.6391304 C36.4661991,11.1855072 30.7440426,0.22173913 30.7440426,0.22173913 C30.6938482,0.147826087 30.5934595,0.0739130435 30.4930708,0.0739130435 L25.1222748,0.0739130435 C24.9716917,0.0739130435 24.8462058,0.197101449 24.8462058,0.320289855 L24.8462058,11.9246377 C24.8462058,13.3289855 24.3693595,13.7724638 21.483184,13.7724638 C18.4464256,13.7724638 18.1452594,13.2550725 18.1452594,11.9246377 L18.1452594,0.369565217 C18.1452594,0.22173913 18.0197735,0.123188406 17.8691905,0.123188406 L11.5948961,0.123188406 C11.4945074,0.123188406 11.4192158,0.172463768 11.3690215,0.246376812 C11.3690215,0.246376812 8.03109684,6.03623188 7.67973635,6.65217391 C7.32837587,6.03623188 4.0406456,0.246376812 4.0406456,0.246376812 C3.99045124,0.172463768 3.91515971,0.123188406 3.814771,0.123188406 L0.301166131,0.123188406 C0.200777421,0.123188406 0.10038871,0.172463768 0.0752915329,0.246376812 C0.0501943552,0.295652174 0.0501943552,0.320289855 0.0501943552,0.369565217 C0.0501943552,0.41884058 0.0501943552,0.468115942 0.10038871,0.492753623 C0.10038871,0.492753623 5.82254521,10.0768116 5.89783674,10.2 C5.89783674,10.3478261 5.89783674,16.2115942 5.89783674,16.2115942 C5.89783674,16.3594203 6.02332263,16.457971 6.14880852,16.457971 L9.26085854,16.457971 C9.41144161,16.457971 9.5369275,16.3347826 9.5369275,16.2115942 C9.5369275,16.2115942 9.5369275,10.3478261 9.5369275,10.2 C9.61221903,10.0768116 13.7532533,3.30144928 14.556363,1.94637681 C14.556363,3.52318841 14.556363,11.9492754 14.556363,11.9492754 C14.556363,16.5565217 17.5680243,16.926087 21.5082812,16.926087 C25.4736353,16.926087 28.5103938,16.5565217 28.5103938,11.9492754 C28.5103938,11.9492754 28.5103938,5.24782609 28.5103938,3.81884058 C29.2131148,5.17391304 34.9854656,16.3101449 34.9854656,16.3101449 C35.03566,16.384058 35.1109515,16.457971 35.2113402,16.457971 L40.3562616,16.457971 C40.5068447,16.457971 40.6323306,16.3347826 40.6323306,16.2115942 L40.6323306,0.369565217 C40.6323306,0.22173913 40.5068447,0.0985507246 40.3562616,0.0985507246 Z" id="Shape" fill="#080505"></path>
                    <path d="M45.8776407,0.0985507246 L42.7655907,0.0985507246 C42.6150076,0.0985507246 42.5146189,0.22173913 42.5146189,0.344927536 L42.5146189,16.2115942 C42.5146189,16.3594203 42.6401048,16.457971 42.7655907,16.457971 L45.8776407,16.457971 C46.0282238,16.457971 46.1537097,16.3347826 46.1537097,16.2115942 L46.1537097,0.369565217 C46.1537097,0.22173913 46.0282238,0.0985507246 45.8776407,0.0985507246 Z" id="Shape" fill="#000000"></path>
                    <path d="M76.5212946,16.1376812 L71.0501099,0.271014493 C71.0250127,0.172463768 70.924624,0.0985507246 70.7991381,0.0985507246 L66.2314517,0.0985507246 C66.131063,0.0985507246 66.0055772,0.172463768 65.98048,0.271014493 C65.98048,0.271014493 61.4880852,13.5753623 61.2120162,14.3884058 C60.6598783,13.7971014 55.8663174,8.40144928 55.6153456,8.08115942 C55.8914146,7.76086957 62.0151259,0.517391304 62.0151259,0.517391304 C62.0653203,0.468115942 62.0904174,0.41884058 62.0904174,0.344927536 C62.0904174,0.295652174 62.0904174,0.271014493 62.0653203,0.246376812 C62.0151259,0.147826087 61.9398344,0.0985507246 61.8143485,0.0985507246 L57.9995775,0.0985507246 C57.924286,0.0985507246 57.8489944,0.123188406 57.7988001,0.197101449 C57.7988001,0.197101449 52.6538787,6.38115942 52.5032956,6.57826087 C52.3527125,6.57826087 51.9260605,6.57826087 51.6248944,6.57826087 C51.6248944,6.08550725 51.6248944,0.369565217 51.6248944,0.369565217 C51.6248944,0.22173913 51.4994085,0.123188406 51.3488254,0.123188406 L48.2618726,0.123188406 C48.1112895,0.123188406 47.9858036,0.246376812 47.9858036,0.369565217 L47.9858036,16.2362319 C47.9858036,16.384058 48.1112895,16.4826087 48.2618726,16.4826087 L51.3488254,16.4826087 C51.4994085,16.4826087 51.6248944,16.3594203 51.6248944,16.2362319 C51.6248944,16.2362319 51.6248944,10.2 51.6248944,9.70724638 C51.9009633,9.70724638 52.3527125,9.70724638 52.5032956,9.70724638 C52.6538787,9.87971014 58.3760352,16.4086957 58.3760352,16.4086957 C58.4262295,16.457971 58.501521,16.4826087 58.5768126,16.4826087 L64.0981917,16.4826087 C64.2236775,16.4826087 64.3240662,16.4086957 64.3491634,16.3101449 C64.3491634,16.3101449 65.2024675,13.7971014 65.3028562,13.4768116 C65.6542167,13.4768116 71.5520534,13.4768116 71.9034139,13.4768116 C72.0038026,13.7971014 72.907301,16.3101449 72.907301,16.3101449 C72.9574954,16.4086957 73.0578841,16.4826087 73.1582728,16.4826087 L76.29542,16.4826087 C76.3707115,16.4826087 76.4711002,16.457971 76.5212946,16.384058 C76.5463918,16.3101449 76.5463918,16.2115942 76.5212946,16.1376812 L76.5212946,16.1376812 Z M71.0250127,10.6434783 C70.4226804,10.6434783 66.7835897,10.6434783 66.1812574,10.6434783 C66.3820348,10.0768116 68.2141288,4.55797101 68.5905864,3.44927536 C68.9670441,4.55797101 70.8242353,10.0768116 71.0250127,10.6434783 Z" id="Shape" fill="#000000"></path>
                </g>
            </g>
        </g>
    </g>
</svg>