<?xml version="1.0" encoding="UTF-8"?>
<svg width="69px" height="69px" viewBox="0 0 69 69" version="1.1" xmlns="http://www.w3.org/2000/svg" xmlns:xlink="http://www.w3.org/1999/xlink">
    <!-- Generator: Sketch 47.1 (45422) - http://www.bohemiancoding.com/sketch -->
    <title>1-21</title>
    <desc>Created with Sketch.</desc>
    <defs>
        <linearGradient x1="-0.0920201203%" y1="50.0165787%" x2="100.072183%" y2="50.0165787%" id="linearGradient-1">
            <stop stop-color="#F3AF69" offset="0%"></stop>
            <stop stop-color="#FA5B5B" offset="100%"></stop>
        </linearGradient>
        <linearGradient x1="0.53%" y1="16.5%" x2="31.46%" y2="16.5%" id="linearGradient-2">
            <stop stop-color="#F3AF69" offset="0%"></stop>
            <stop stop-color="#FA5B5B" offset="100%"></stop>
        </linearGradient>
        <linearGradient x1="0.15257732%" y1="49.8714777%" x2="100.076976%" y2="49.8714777%" id="linearGradient-3">
            <stop stop-color="#F3AF69" offset="0%"></stop>
            <stop stop-color="#FA5B5B" offset="100%"></stop>
        </linearGradient>
        <linearGradient x1="-0.0872852234%" y1="49.6316151%" x2="99.8364261%" y2="49.6316151%" id="linearGradient-4">
            <stop stop-color="#F3AF69" offset="0%"></stop>
            <stop stop-color="#FA5B5B" offset="100%"></stop>
        </linearGradient>
        <linearGradient x1="0.361512027%" y1="50.0797251%" x2="100.284536%" y2="50.0797251%" id="linearGradient-5">
            <stop stop-color="#F3AF69" offset="0%"></stop>
            <stop stop-color="#FA5B5B" offset="100%"></stop>
        </linearGradient>
        <linearGradient x1="0.120962199%" y1="49.8405498%" x2="100.043299%" y2="49.8405498%" id="linearGradient-6">
            <stop stop-color="#F3AF69" offset="0%"></stop>
            <stop stop-color="#FA5B5B" offset="100%"></stop>
        </linearGradient>
        <linearGradient x1="0.100531511%" y1="49.8884113%" x2="100.139711%" y2="49.8884113%" id="linearGradient-7">
            <stop stop-color="#F3AF69" offset="0%"></stop>
            <stop stop-color="#FA5B5B" offset="100%"></stop>
        </linearGradient>
    </defs>
    <g id="Page-1" stroke="none" stroke-width="1" fill="none" fill-rule="evenodd">
        <g id="О-компании" transform="translate(-269.000000, -1102.000000)" fill-rule="nonzero">
            <g id="1-21" transform="translate(269.000000, 1102.000000)">
                <path d="M34.4481203,68.8443609 C15.4082707,68.8443609 0,53.4360902 0,34.4481203 C0,15.4601504 15.4082707,0 34.4481203,0 C53.4879699,0 68.8962406,15.4082707 68.8962406,34.4481203 C68.8962406,49.8045113 58.5721805,63.4488722 43.7864662,67.5473684 C43.2157895,67.7030075 42.6451128,67.3917293 42.4894737,66.8210526 C42.3338346,66.2503759 42.6451128,65.6796992 43.2157895,65.5240602 C57.0676692,61.6330827 66.8210526,48.818797 66.8210526,34.3962406 C66.8210526,16.5496241 52.3466165,2.07518797 34.5,2.07518797 C16.6533835,2.07518797 2.07518797,16.6015038 2.07518797,34.4481203 C2.07518797,51.9315789 15.9789474,66.1984962 33.3586466,66.7172932 L33.3586466,61.8924812 C33.3586466,61.3218045 33.8255639,60.8548872 34.3962406,60.8548872 C48.9225564,60.8548872 60.8030075,48.9744361 60.8030075,34.4481203 C60.8030075,19.9218045 48.9744361,7.98947368 34.4481203,7.98947368 C19.9218045,7.98947368 7.98947368,19.8699248 7.98947368,34.4481203 C7.98947368,45.8616541 15.2526316,55.8744361 26.043609,59.506015 C26.562406,59.6616541 26.8736842,60.2842105 26.7180451,60.8030075 C26.5105263,61.3218045 25.9398496,61.6330827 25.4210526,61.4774436 C13.7481203,57.5864662 5.96616541,46.743609 5.96616541,34.4481203 C5.96616541,18.6766917 18.7285714,5.91428571 34.5,5.91428571 C50.2714286,5.91428571 63.0338346,18.6766917 63.0338346,34.4481203 C63.0338346,49.8045113 50.7902256,62.4112782 35.5894737,62.9819549 L35.5894737,67.8586466 C35.4857143,68.3774436 35.018797,68.8443609 34.4481203,68.8443609 Z" id="Shape" fill="#F86B65"></path>
                <g id="Group" transform="translate(14.526316, 17.120301)">
                    <path d="M39.2729323,9.59774436 L32.0616541,2.49022556 C31.5947368,2.02330827 30.8684211,2.02330827 30.4533835,2.49022556 L26.3030075,6.48496241 C23.8646617,6.8481203 21.0631579,6.53684211 18.5210526,9.02706767 C16.9646617,10.5834586 16.393985,11.1541353 16.2902256,11.2578947 C16.2902256,11.2578947 16.3421053,11.206015 16.3421053,11.206015 C15.9270677,11.6210526 15.3045113,12.243609 14.318797,13.2293233 C13.6443609,13.9037594 13.6443609,14.9932331 14.318797,15.6676692 C14.9932331,16.3421053 16.0827068,16.3421053 16.7571429,15.6676692 L20.4406015,11.9842105 C22.256391,10.1684211 25.1616541,10.1684211 26.9774436,11.9842105 L34.2406015,19.3511278 C35.2263158,17.4315789 34.7593985,16.9646617 35.2263158,15.4601504 L39.2210526,11.2578947 C39.6879699,10.7909774 39.6879699,10.0646617 39.2729323,9.59774436 Z" id="Shape" fill="url(#linearGradient-1)"></path>
                    <path d="M16.3421053,11.206015 C16.393985,11.1541353 16.4458647,11.1022556 16.4977444,11.0503759 C16.4458647,11.1022556 16.393985,11.1541353 16.3421053,11.206015 Z" id="Shape" fill="url(#linearGradient-2)"></path>
                    <path d="M9.39022556,18.9879699 C8.71578947,18.3135338 7.62631579,18.3135338 6.9518797,18.9879699 L2.85338346,23.0864662 C2.17894737,23.7609023 2.17894737,24.8503759 2.85338346,25.524812 C3.52781955,26.1992481 4.61729323,26.1992481 5.29172932,25.524812 L9.39022556,21.4263158 C10.0646617,20.7518797 10.0646617,19.662406 9.39022556,18.9879699 Z" id="Shape" fill="url(#linearGradient-3)"></path>
                    <path d="M13.4887218,23.0864662 C12.8142857,22.4120301 11.724812,22.4120301 11.0503759,23.0864662 L6.9518797,27.1849624 C6.27744361,27.8593985 6.27744361,28.9488722 6.9518797,29.6233083 C7.62631579,30.2977444 8.71578947,30.2977444 9.39022556,29.6233083 L13.4887218,25.524812 C14.1631579,24.8503759 14.1631579,23.7609023 13.4887218,23.0864662 Z" id="Shape" fill="url(#linearGradient-4)"></path>
                    <path d="M17.5353383,27.1330827 C16.8609023,26.4586466 15.7714286,26.4586466 15.0969925,27.1330827 L10.9984962,31.2315789 C10.3240602,31.906015 10.3240602,32.9954887 10.9984962,33.6699248 C11.6729323,34.3443609 12.762406,34.3443609 13.4368421,33.6699248 L17.5353383,29.5714286 C18.2097744,28.8969925 18.2097744,27.8075188 17.5353383,27.1330827 Z" id="Shape" fill="url(#linearGradient-5)"></path>
                    <path d="M19.1954887,31.2315789 L15.0969925,35.3300752 C14.4225564,36.0045113 14.4225564,37.093985 15.0969925,37.7684211 C15.7714286,38.4428571 16.8609023,38.4428571 17.5353383,37.7684211 L21.6338346,33.6699248 C22.3082707,32.9954887 22.3082707,31.906015 21.6338346,31.2315789 C20.9593985,30.5571429 19.8699248,30.5571429 19.1954887,31.2315789 Z" id="Shape" fill="url(#linearGradient-6)"></path>
                    <path d="M25.3172932,13.6962406 C24.4353383,12.8142857 22.9308271,12.8142857 22.0488722,13.6962406 L18.3654135,17.3796992 C16.7571429,18.9879699 14.1631579,18.8842105 12.6586466,17.3796992 C11.1541353,15.875188 11.0503759,13.281203 12.6586466,11.6729323 L16.8609023,7.47067669 C17.8984962,6.43308271 19.0917293,5.70676692 20.4406015,5.18796992 C18.106015,4.09849624 16.4458647,4.56541353 14.9932331,4.46165414 L10.6353383,0.67443609 C10.1684211,0.207518797 9.44210526,0.207518797 9.02706767,0.67443609 L0.518796992,8.76766917 C0.0518796992,9.23458647 0.0518796992,9.96090226 0.518796992,10.3759398 L4.61729323,15.0969925 L4.66917293,15.0451128 C3.99473684,16.2383459 3.68345865,17.5353383 3.73533835,18.8842105 L5.13609023,17.4834586 C6.6924812,15.9270677 9.18270677,15.6676692 10.8428571,17.1203008 C11.7766917,17.9503759 12.243609,19.0917293 12.243609,20.2330827 C13.281203,20.2330827 14.3706767,20.5962406 15.1488722,21.4263158 C15.9270677,22.2045113 16.3421053,23.293985 16.3421053,24.3315789 C17.3796992,24.3315789 18.4691729,24.6947368 19.2473684,25.524812 C20.0255639,26.3030075 20.4406015,27.3924812 20.4406015,28.4300752 C21.4781955,28.4300752 22.5676692,28.7932331 23.3458647,29.6233083 C24.3834586,30.6609023 24.6947368,32.0616541 24.4353383,33.3586466 C24.9541353,33.4105263 25.4210526,33.2548872 25.7842105,32.8917293 C26.4586466,32.2172932 26.4586466,31.1278195 25.7842105,30.4533835 L19.6105263,24.2796992 C19.143609,23.812782 19.143609,23.0864662 19.6105263,22.6714286 C20.0774436,22.2045113 20.8037594,22.2045113 21.218797,22.6714286 L27.3406015,28.7932331 C28.0150376,29.4676692 29.1045113,29.4676692 29.7789474,28.7932331 C30.4533835,28.118797 30.4533835,27.0293233 29.7789474,26.3548872 L23.6571429,20.181203 C23.1902256,19.7142857 23.1902256,18.9879699 23.6571429,18.5729323 C24.1240602,18.106015 24.8503759,18.106015 25.2654135,18.5729323 L31.387218,24.6947368 C32.0616541,25.3691729 33.1511278,25.3691729 33.8255639,24.6947368 C34.5,24.0203008 34.5,22.9308271 33.8255639,22.256391 L25.3172932,13.6962406 Z" id="Shape" fill="url(#linearGradient-7)"></path>
                </g>
            </g>
        </g>
    </g>
</svg>