<?xml version="1.0" encoding="UTF-8"?>
<svg width="69px" height="69px" viewBox="0 0 69 69" version="1.1" xmlns="http://www.w3.org/2000/svg" xmlns:xlink="http://www.w3.org/1999/xlink">
    <!-- Generator: Sketch 47.1 (45422) - http://www.bohemiancoding.com/sketch -->
    <title>1-16</title>
    <desc>Created with Sketch.</desc>
    <defs>
        <linearGradient x1="4.13981544%" y1="0%" x2="97.7532769%" y2="97.65625%" id="linearGradient-1">
            <stop stop-color="#F3AF69" offset="0%"></stop>
            <stop stop-color="#FA615C" offset="92.4006417%"></stop>
            <stop stop-color="#FA5B5B" offset="100%"></stop>
        </linearGradient>
        <path d="M0.113763264,3.26642658 C0.1137633,3.23555029 0.114230955,3.20456646 0.115172932,3.1734812 C0.115172932,1.49154135 1.5008797,0.107909774 3.16673684,0.0793759398 L3.27153383,0.0793759398 C3.28502256,0.0798947368 3.29851128,0.0798947368 3.312,0.0804135338 C5.01085724,0.0804135338 6.40592424,1.49626625 6.40593167,3.18557984 L6.40593167,3.18559669 C6.40593164,3.21622995 6.40547288,3.24695312 6.40454887,3.2777594 C6.40454887,4.97652815 4.98969253,6.37122031 3.30116601,6.37122725 L3.30114968,6.37122725 C3.2699253,6.37122721 3.23860733,6.37075025 3.20720301,6.36978947 C1.50914346,6.31884259 0.113770462,4.95308535 0.113763264,3.26644316 L0.113763264,3.26642658 L0.113763264,3.26642658 Z" id="path-2"></path>
    </defs>
    <g id="Page-1" stroke="none" stroke-width="1" fill="none" fill-rule="evenodd">
        <g id="О-компании" transform="translate(-27.000000, -1102.000000)">
            <g id="1-16" transform="translate(27.000000, 1102.000000)">
                <g id="Group-7" fill="#F86B65">
                    <path d="M49.8437842,29.1411902 C51.2590624,29.1411902 52.4642278,30.2944759 52.4642278,31.7616338 C52.4642278,33.2293105 51.3114609,34.3825962 49.8437842,34.3825962 C48.3761075,34.3825962 47.2233406,33.2293105 47.2233406,31.7616338 C47.2233406,30.2944759 48.428506,29.1411902 49.8437842,29.1411902 M52.9581226,35.2375737 C53.9344985,34.3758519 54.5606865,33.1203632 54.5606865,31.7092353 C54.5606865,29.0882729 52.4642278,26.9918143 49.8437842,26.9918143 C47.2233406,26.9918143 45.126882,29.0882729 45.126882,31.7092353 C45.126882,33.1203632 45.7530699,34.3758519 46.7294459,35.2375737 C44.4519271,36.389303 42.872709,38.7498293 42.872709,41.4579496 L42.872709,42.0867316 C42.872709,42.663115 43.3448143,43.1352203 43.9211977,43.1352203 C44.4975812,43.1352203 44.9691677,42.663115 44.9691677,42.0867316 L44.9691677,41.4579496 C44.9691677,38.7851075 47.1709421,36.5838519 49.8437842,36.5838519 C52.5166263,36.5838519 54.7184008,38.7851075 54.7184008,41.4579496 L54.7184008,42.0867316 C54.7184008,42.663115 55.1899872,43.1352203 55.7663707,43.1352203 C56.3427541,43.1352203 56.8148594,42.663115 56.8148594,42.0867316 L56.8148594,41.4579496 C56.8148594,38.7498293 55.2356414,36.389303 52.9581226,35.2375737" id="Fill-1"></path>
                    <path d="M18.2394496,29.1411902 C19.6547278,29.1411902 20.8598932,30.2944759 20.8598932,31.7616338 C20.8598932,33.2293105 19.7071263,34.3825962 18.2394496,34.3825962 C16.7717729,34.3825962 15.619006,33.2293105 15.619006,31.7616338 C15.619006,30.2944759 16.8241714,29.1411902 18.2394496,29.1411902 M21.353788,35.2375737 C22.3301639,34.3758519 22.9563519,33.1203632 22.9563519,31.7092353 C22.9563519,29.0882729 20.8598932,26.9918143 18.2394496,26.9918143 C15.619006,26.9918143 13.5225474,29.0882729 13.5225474,31.7092353 C13.5225474,33.1203632 14.1487353,34.3758519 15.1251113,35.2375737 C12.8475925,36.389303 11.2683744,38.7498293 11.2683744,41.4579496 L11.2683744,42.0867316 C11.2683744,42.663115 11.7404797,43.1352203 12.3168632,43.1352203 C12.8932466,43.1352203 13.3648331,42.663115 13.3648331,42.0867316 L13.3648331,41.4579496 C13.3648331,38.7851075 15.5666075,36.5838519 18.2394496,36.5838519 C20.9122917,36.5838519 23.1140662,38.7851075 23.1140662,41.4579496 L23.1140662,42.0867316 C23.1140662,42.663115 23.5856526,43.1352203 24.1620361,43.1352203 C24.7384195,43.1352203 25.2105248,42.663115 25.2105248,42.0867316 L25.2105248,41.4579496 C25.2105248,38.7498293 23.6313068,36.389303 21.353788,35.2375737" id="Fill-3"></path>
                    <path d="M34.487082,68.9740602 C15.4617586,68.9740602 5.18796992e-05,53.5123534 5.18796992e-05,34.4870301 C5.18796992e-05,15.4617068 15.4617586,0 34.487082,0 C53.5124053,0 68.974112,15.4617068 68.974112,34.4870301 C68.974112,49.8963383 58.6490143,63.5230602 43.8166083,67.6640977 C43.2402248,67.8207744 42.6633226,67.5069023 42.5061271,66.9305188 C42.3489316,66.3536165 42.6633226,65.7772331 43.2402248,65.6195188 C57.1294579,61.7415113 66.8776534,48.9007669 66.8776534,34.4346316 C66.8776534,16.562594 52.3596383,2.04406015 34.487082,2.04406015 C16.6145256,2.04406015 2.09651053,16.6144737 2.09651053,34.4870301 C2.09651053,51.992797 16.0381421,66.301218 33.4385932,66.825203 L33.4385932,62.002985 C33.4385932,61.4266015 33.9106985,60.955015 34.487082,60.955015 C49.0574955,60.955015 60.9550669,49.0574436 60.9550669,34.4870301 C60.9550669,19.9160977 49.0574955,8.01904511 34.487082,8.01904511 C19.9166684,8.01904511 8.01909699,19.9160977 8.01909699,34.4870301 C8.01909699,45.913015 15.3040444,55.9761203 26.1012474,59.5926541 C26.6252323,59.7498496 26.9396233,60.3786316 26.7824278,60.9026165 C26.5728338,61.4266015 25.9964504,61.7415113 25.4724654,61.5843158 C13.7320895,57.7052707 5.92263835,46.8043083 5.92263835,34.4870301 C5.92263835,18.7109323 18.7109842,5.92258647 34.487082,5.92258647 C50.2631797,5.92258647 63.0515256,18.7109323 63.0515256,34.4870301 C63.0515256,49.8963383 50.7871647,62.4750902 35.5355707,63.0514737 L35.5355707,67.9255714 C35.5355707,68.5024737 35.0634654,68.9740602 34.487082,68.9740602" id="Fill-5"></path>
                </g>
                <path d="M21.6462857,18.1345489 C21.016985,18.7109323 20.702594,19.4974286 20.702594,20.3363233 L20.702594,20.3363233 C20.702594,21.1741805 21.0699023,22.0125564 21.6462857,22.5894586 L21.6462857,22.5894586 C22.2226692,23.2187594 23.0086466,23.5331504 23.8475414,23.5331504 L23.8475414,23.5331504 C24.6335188,23.5331504 25.4724135,23.1658421 26.048797,22.5894586 L26.048797,22.5894586 C26.6775789,21.9606767 26.9919699,21.1741805 26.9919699,20.3363233 L26.9919699,20.3363233 C26.9919699,19.5498271 26.6256992,18.7109323 26.048797,18.1345489 L26.048797,18.1345489 C25.4724135,17.5057669 24.6335188,17.1913759 23.8475414,17.1913759 L23.8475414,17.1913759 C23.0615639,17.1913759 22.2226692,17.5576466 21.6462857,18.1345489" id="Fill-8" fill="url(#linearGradient-1)"></path>
                <g id="Group-12" transform="translate(31.646617, 12.969925)">
                    <mask id="mask-3" fill="white">
                        <use xlink:href="#path-2"></use>
                    </mask>
                    <g id="Clip-11"></g>
                    <path d="M3.16673684,0.0793759398 C1.5008797,0.107909774 0.115172932,1.49154135 0.115172932,3.1734812 L0.115172932,3.1734812 C0.0627744361,4.90263158 1.47805263,6.31790977 3.20720301,6.36978947 L3.20720301,6.36978947 C4.93687218,6.42270677 6.40454887,5.00794737 6.40454887,3.2777594 L6.40454887,3.2777594 C6.45642857,1.54809023 5.04166917,0.0804135338 3.312,0.0804135338 L3.312,0.0804135338 C3.29851128,0.0798947368 3.28502256,0.0798947368 3.27153383,0.0793759398 L3.27153383,0.0793759398 L3.16673684,0.0793759398 Z" id="Fill-10" fill="url(#linearGradient-1)" mask="url(#mask-3)"></path>
                </g>
                <path d="M43.8165564,18.1345489 C43.1872556,18.7109323 42.8728647,19.4974286 42.8728647,20.3363233 L42.8728647,20.3363233 C42.8728647,21.1741805 43.2396541,22.0125564 43.8165564,22.5894586 L43.8165564,22.5894586 C44.3924211,23.2187594 45.1794361,23.5331504 46.0172932,23.5331504 L46.0172932,23.5331504 C46.8567068,23.5331504 47.6945639,23.1658421 48.2190677,22.5894586 L48.2190677,22.5894586 C48.8478496,21.9606767 49.1627594,21.1741805 49.1627594,20.3363233 L49.1627594,20.3363233 C49.1627594,19.5498271 48.7954511,18.7638496 48.2190677,18.1345489 L48.2190677,18.1345489 C47.6421654,17.5057669 46.8567068,17.1913759 46.0172932,17.1913759 L46.0172932,17.1913759 C45.2318346,17.1913759 44.4453383,17.5576466 43.8165564,18.1345489" id="Fill-13" fill="url(#linearGradient-1)"></path>
                <path d="M21.6462857,47.2229774 C21.016985,47.7998797 20.702594,48.6382556 20.702594,49.4247519 L20.702594,49.4247519 C20.702594,50.2107293 21.0699023,51.0496241 21.6462857,51.6254887 L21.6462857,51.6254887 C22.2226692,52.2547895 23.0086466,52.5691805 23.8475414,52.5691805 L23.8475414,52.5691805 C24.6335188,52.5691805 25.4724135,52.2547895 26.048797,51.6254887 L26.048797,51.6254887 C26.6775789,51.0496241 26.9919699,50.2107293 26.9919699,49.4247519 L26.9919699,49.4247519 C26.9919699,48.6382556 26.6256992,47.7998797 26.048797,47.2229774 L26.048797,47.2229774 C25.4724135,46.5947143 24.6335188,46.2798045 23.8475414,46.2798045 L23.8475414,46.2798045 C23.0615639,46.2798045 22.2226692,46.646594 21.6462857,47.2229774" id="Fill-15" fill="url(#linearGradient-1)"></path>
                <path d="M31.7617895,53.6700677 C31.7617895,55.3997368 33.1770677,56.7620977 34.906218,56.7620977 L34.906218,56.7620977 L34.9586165,56.7620977 C36.6882857,56.7096992 38.0511654,55.2944211 38.0511654,53.5652707 L38.0511654,53.5652707 C37.9987669,51.8356015 36.5834887,50.4727218 34.8538195,50.4727218 L34.8538195,50.4727218 C33.1246692,50.5256391 31.7617895,51.9403985 31.7617895,53.6700677" id="Fill-17" fill="url(#linearGradient-1)"></path>
                <path d="M43.8165564,47.2229774 C43.1872556,47.7998797 42.8728647,48.6382556 42.8728647,49.4247519 L42.8728647,49.4247519 C42.8728647,50.2107293 43.2396541,51.0496241 43.8165564,51.6254887 L43.8165564,51.6254887 C44.3924211,52.2547895 45.1794361,52.5691805 46.0172932,52.5691805 L46.0172932,52.5691805 C46.8567068,52.5691805 47.6945639,52.2547895 48.2190677,51.6254887 L48.2190677,51.6254887 C48.8478496,51.0496241 49.1627594,50.2107293 49.1627594,49.4247519 L49.1627594,49.4247519 C49.1627594,48.6382556 48.7954511,47.7998797 48.2190677,47.2229774 L48.2190677,47.2229774 C47.6421654,46.5947143 46.8567068,46.2798045 46.0172932,46.2798045 L46.0172932,46.2798045 C45.2318346,46.2798045 44.3924211,46.646594 43.8165564,47.2229774" id="Fill-19" fill="url(#linearGradient-1)"></path>
            </g>
        </g>
    </g>
</svg>