<?xml version="1.0" encoding="UTF-8"?>
<svg width="12px" height="14px" viewBox="0 0 12 14" version="1.1" xmlns="http://www.w3.org/2000/svg" xmlns:xlink="http://www.w3.org/1999/xlink">
    <!-- Generator: Sketch 47.1 (45422) - http://www.bohemiancoding.com/sketch -->
    <title></title>
    <desc>Created with Sketch.</desc>
    <defs></defs>
    <g id="Page-1" stroke="none" stroke-width="1" fill="none" fill-rule="evenodd">
        <g id="Главная" transform="translate(-818.000000, -5.000000)" fill="#000000">
            <g id="Group-6">
                <path d="M827.382812,11.125 C827.627605,11.197917 827.860676,11.2968744 828.082031,11.421875 C828.303387,11.5468756 828.535155,11.7369779 828.777344,11.9921875 C829.019532,12.2473971 829.226562,12.5481754 829.398438,12.8945312 C829.570313,13.2408871 829.713541,13.6887993 829.828125,14.2382812 C829.942709,14.7877632 830,15.4036424 830,16.0859375 C830,16.8880248 829.739586,17.5742159 829.21875,18.1445312 C828.697914,18.7148466 828.070316,19 827.335938,19 L820.664062,19 C819.929684,19 819.302086,18.7148466 818.78125,18.1445312 C818.260414,17.5742159 818,16.8880248 818,16.0859375 C818,15.4036424 818.057291,14.7877632 818.171875,14.2382812 C818.286459,13.6887993 818.429687,13.2408871 818.601562,12.8945312 C818.773438,12.5481754 818.980468,12.2473971 819.222656,11.9921875 C819.464845,11.7369779 819.696613,11.5468756 819.917969,11.421875 C820.139324,11.2968744 820.372395,11.197917 820.617188,11.125 C820.205727,10.4739551 820,9.76562883 820,9 C820,8.45833062 820.105468,7.94140871 820.316406,7.44921875 C820.527345,6.95702879 820.812498,6.5312518 821.171875,6.171875 C821.531252,5.8124982 821.957029,5.5273448 822.449219,5.31640625 C822.941409,5.1054677 823.458331,5 824,5 C824.541669,5 825.058591,5.1054677 825.550781,5.31640625 C826.042971,5.5273448 826.468748,5.8124982 826.828125,6.171875 C827.187502,6.5312518 827.472655,6.95702879 827.683594,7.44921875 C827.894532,7.94140871 828,8.45833062 828,9 C828,9.76562883 827.794273,10.4739551 827.382812,11.125 Z M826.117188,6.8828125 C825.533851,6.29426789 824.828129,6 824,6 C823.171871,6 822.464847,6.29296582 821.878906,6.87890625 C821.292966,7.46484668 821,8.17187086 821,9 C821,9.82812914 821.292966,10.5351533 821.878906,11.1210938 C822.464847,11.7070342 823.171871,12 824,12 C824.828129,12 825.535153,11.7070342 826.121094,11.1210938 C826.707034,10.5351533 827,9.82812914 827,9 C827,8.17187086 826.705732,7.46614875 826.117188,6.8828125 Z M827.335938,18 C827.794273,18 828.186196,17.8138039 828.511719,17.4414062 C828.837241,17.0690086 829,16.6171902 829,16.0859375 C829,14.8411396 828.795575,13.8593786 828.386719,13.140625 C827.977863,12.4218714 827.390629,12.044271 826.625,12.0078125 C825.869788,12.6692741 824.994797,13 824,13 C823.005203,13 822.130212,12.6692741 821.375,12.0078125 C820.609371,12.044271 820.022137,12.4218714 819.613281,13.140625 C819.204425,13.8593786 819,14.8411396 819,16.0859375 C819,16.6171902 819.162759,17.0690086 819.488281,17.4414062 C819.813804,17.8138039 820.205727,18 820.664062,18 L827.335938,18 Z" id=""></path>
            </g>
        </g>
    </g>
</svg>