<?xml version="1.0" encoding="UTF-8"?>
<svg width="69px" height="69px" viewBox="0 0 69 69" version="1.1" xmlns="http://www.w3.org/2000/svg" xmlns:xlink="http://www.w3.org/1999/xlink">
    <!-- Generator: Sketch 47.1 (45422) - http://www.bohemiancoding.com/sketch -->
    <title>1-17</title>
    <desc>Created with Sketch.</desc>
    <defs>
        <linearGradient x1="4.13981544%" y1="0%" x2="97.7532769%" y2="97.65625%" id="linearGradient-1">
            <stop stop-color="#F3AF69" offset="0%"></stop>
            <stop stop-color="#FA615C" offset="92.4006417%"></stop>
            <stop stop-color="#FA5B5B" offset="100%"></stop>
        </linearGradient>
    </defs>
    <g id="Page-1" stroke="none" stroke-width="1" fill="none" fill-rule="evenodd">
        <g id="О-компании" transform="translate(-753.000000, -1102.000000)">
            <g id="1-17" transform="translate(753.000000, 1102.000000)">
                <path d="M42.0539552,28.4238806 L42.0539552,44.3865672 C42.0539552,46.085306 43.4442537,47.4761194 45.1429925,47.4761194 L45.1429925,47.4761194 C46.8422463,47.4761194 48.2325448,46.085306 48.2325448,44.3865672 L48.2325448,44.3865672 L48.2325448,28.4238806 C48.2325448,26.7241119 46.8422463,25.3343284 45.1429925,25.3343284 L45.1429925,25.3343284 C43.4442537,25.3343284 42.0539552,26.7241119 42.0539552,28.4238806" id="Fill-1" fill="url(#linearGradient-1)"></path>
                <path d="M31.0855299,32.0798507 L31.0855299,44.3865672 C31.0855299,46.085306 32.4763433,47.4761194 34.175597,47.4761194 L34.175597,47.4761194 C35.8743358,47.4761194 37.2651493,46.085306 37.2651493,44.3865672 L37.2651493,44.3865672 L37.2651493,32.0798507 C37.2651493,30.3800821 35.8743358,28.9897836 34.175597,28.9897836 L34.175597,28.9897836 C32.4763433,28.9897836 31.0855299,30.3800821 31.0855299,32.0798507" id="Fill-4" fill="url(#linearGradient-1)"></path>
                <g id="Group-15">
                    <path d="M20.1181343,36.1992537 L20.1181343,44.3865672 C20.1181343,46.085306 21.5084328,47.4761194 23.2076866,47.4761194 L23.2076866,47.4761194 C24.9579179,47.4761194 26.2972388,46.085306 26.2972388,44.3865672 L26.2972388,44.3865672 L26.2972388,36.1992537 C26.2972388,34.4994851 24.9069403,33.1091866 23.2076866,33.1091866 L23.2076866,33.1091866 C21.5084328,33.1091866 20.1181343,34.4994851 20.1181343,36.1992537" id="Fill-7" fill="url(#linearGradient-1)"></path>
                    <path d="M43.1476052,19.2004858 C43.0574933,18.9528067 42.8855082,18.7679485 42.6805679,18.6515754 C42.6584261,18.6376724 42.6362843,18.6247993 42.6125978,18.612441 C42.5986948,18.6062619 42.5842769,18.6000828 42.569859,18.5939037 C42.5230007,18.5717619 42.4766575,18.5475604 42.4267097,18.5310828 L37.0714858,17.0377993 C36.5050679,16.8833216 35.93865,17.1927918 35.7841724,17.7586948 C35.6296948,18.3251127 35.93865,18.8915306 36.5050679,19.0460082 L38.829956,19.7020231 L6.99984403,31.6616799 C6.43342612,31.8681649 6.17596343,32.4855604 6.38193358,33.0004858 C6.53641119,33.412941 6.94835149,33.6704037 7.36029179,33.6704037 C7.46327687,33.6704037 7.61775448,33.6183963 7.72073955,33.5669037 L39.5534261,21.6535903 L38.2558142,23.629359 C37.946859,24.1442843 38.1013366,24.7616799 38.5647694,25.0706351 C38.719247,25.1741351 38.9252172,25.2251127 39.1311873,25.2251127 C39.4401425,25.2251127 39.8005903,25.0706351 39.9550679,24.7101873 L42.7722246,20.4126201 C43.163053,20.1510381 43.3206201,19.6773067 43.1476052,19.2004858" id="Fill-10" fill="#F86B65"></path>
                    <g id="Group-14" fill="#F86B65">
                        <path d="M1.25564552,43.4588261 C-3.80555597,25.2371619 6.88995896,6.31674403 25.1116231,1.25554254 C43.3327724,-3.80514403 62.2537052,6.88985597 67.3149067,25.1110052 C72.3755933,43.3326694 61.6805933,62.2536022 43.4589291,67.3148037 C28.7011679,71.4136097 12.9032575,65.1495425 4.99194403,52.0457216 C4.68865299,51.5354306 4.83643657,50.8989828 5.34621269,50.5951769 C5.85701866,50.2918858 6.49243657,50.4396694 6.79675746,50.9494455 C14.2055037,63.2201172 29.0971455,69.1407291 42.9517276,65.2926918 C60.0683619,60.5389007 70.1114664,42.7724306 65.3571604,25.6552813 C60.6028545,8.53813209 42.7859216,-1.49055448 25.6692873,3.26323657 C8.90331716,7.91970672 -1.09189925,25.0790799 3.03522761,41.8831545 L7.65307836,40.6004754 C8.20507836,40.4470276 8.7823097,40.7734903 8.93575746,41.3254903 C12.8116007,55.2804828 27.3711157,63.5100201 41.3255933,59.6346918 C55.2805858,55.7588485 63.5101231,41.1988187 59.6347948,27.244341 C55.7589515,13.2898634 41.1989216,5.05981119 27.244444,8.93565448 C16.3017649,11.974744 8.6015709,21.6290799 8.01043657,32.9322067 C7.99910821,33.475453 7.48006343,33.9440351 6.93630224,33.9332216 C6.37863806,33.8719455 5.92395896,33.4033634 5.93528731,32.8590873 C6.52693657,20.5832664 14.8903545,10.2044306 26.6867799,6.92796045 C41.7957201,2.73131866 57.445847,11.5777366 61.6424888,26.6866769 C65.8391306,41.7961321 56.9927127,57.445744 41.8832575,61.6423858 C27.1254963,65.7411918 11.81625,57.3412142 7.20663806,42.8877739 L2.53832463,44.183841 C1.98632463,44.3372888 1.40909328,44.0108261 1.25564552,43.4588261" id="Fill-12"></path>
                    </g>
                </g>
            </g>
        </g>
    </g>
</svg>