<?xml version="1.0" encoding="UTF-8"?>
<svg width="69px" height="69px" viewBox="0 0 69 69" version="1.1" xmlns="http://www.w3.org/2000/svg" xmlns:xlink="http://www.w3.org/1999/xlink">
    <!-- Generator: Sketch 47.1 (45422) - http://www.bohemiancoding.com/sketch -->
    <title>1-19</title>
    <desc>Created with Sketch.</desc>
    <defs>
        <polygon id="path-1" points="0.000102985075 0 68.5279164 0 68.5279164 68.5277104 0.000102985075 68.5277104"></polygon>
        <linearGradient x1="4.13981544%" y1="0%" x2="97.7532769%" y2="97.65625%" id="linearGradient-3">
            <stop stop-color="#F3AF69" offset="0%"></stop>
            <stop stop-color="#FA615C" offset="92.4006417%"></stop>
            <stop stop-color="#FA5B5B" offset="100%"></stop>
        </linearGradient>
    </defs>
    <g id="Page-1" stroke="none" stroke-width="1" fill="none" fill-rule="evenodd">
        <g id="Страница-Квартиры" transform="translate(-99.000000, -1388.000000)">
            <g id="1-19" transform="translate(99.000000, 1388.000000)">
                <g id="Group-10">
                    <path d="M47.844291,59.9097649 C47.478694,59.9097649 47.113097,59.7007052 46.9040373,59.3871157 C46.6429701,58.8654963 46.7995075,58.2383172 47.3216418,57.97725 C55.9404627,53.2244888 61.3198881,44.135541 61.3198881,34.2639067 C61.3198881,26.16825 57.7679328,18.5947276 51.5527836,13.423847 C51.1351791,13.05825 51.0301343,12.3785485 51.3957313,11.960944 C51.7613284,11.5428246 52.4405149,11.4388097 52.8581194,11.8044067 C59.5444254,17.3408843 63.4094552,25.5415858 63.4094552,34.2118993 C63.4094552,44.8152425 57.6119104,54.5818321 48.3669403,59.7527127 C48.1573657,59.8572425 48.0008284,59.9097649 47.844291,59.9097649" id="Fill-1" fill="#F86B65"></path>
                    <path d="M47.844291,59.9097649 C47.478694,59.9097649 47.113097,59.7007052 46.9040373,59.3351082 L40.8449104,47.6354888 C40.6888881,47.3218993 40.6888881,47.0083097 40.8449104,46.6952351 L46.6954925,34.4729664 L40.8449104,20.8403172 C40.7408955,20.5272425 40.7408955,20.213653 40.8974328,19.9005784 L46.9560448,9.14018284 C47.2171119,8.61856343 47.8968134,8.46151119 48.3669403,8.72257836 C48.8885597,8.98416045 49.0456119,9.66283209 48.7845448,10.132959 L42.9344776,20.4747201 L48.7845448,34.054847 C48.8885597,34.3164291 48.8885597,34.6295037 48.7845448,34.9430933 L42.9344776,47.1128396 L48.7325373,58.342847 C48.9930896,58.8654963 48.7845448,59.4916455 48.2624104,59.7527127 C48.1573657,59.8572425 48.0008284,59.9097649 47.844291,59.9097649" id="Fill-3" fill="#F86B65"></path>
                    <path d="M49.7244896,51.6573649 C49.3588925,51.6573649 48.9932955,51.4483052 48.7847507,51.0827082 L46.9037284,47.6352828 C46.747706,47.3216933 46.747706,47.0086187 46.9037284,46.6950291 L52.7543104,34.4727604 L46.8517209,20.8401112 C46.747706,20.5270366 46.747706,20.2139619 46.9037284,19.9003724 L51.2914075,12.1177903 C51.5529896,11.595141 52.2316612,11.4391187 52.7017881,11.6996709 C53.1719149,11.9607381 53.3809746,12.6404396 53.1199075,13.1105664 L48.9932955,20.4745142 L54.8428478,34.1071634 C54.9478925,34.3687455 54.9478925,34.6818201 54.8428478,34.9954097 L48.9932955,47.1131485 L50.6127358,50.1424545 C50.8732881,50.6645888 50.7172657,51.291253 50.1946164,51.5528351 C50.0375642,51.6048425 49.8815418,51.6573649 49.7244896,51.6573649" id="Fill-5" fill="#F86B65"></path>
                    <g id="Group-9">
                        <mask id="mask-2" fill="white">
                            <use xlink:href="#path-1"></use>
                        </mask>
                        <g id="Clip-8"></g>
                        <path d="M36.4053269,68.5277104 C25.488909,68.5277104 16.1919313,65.0808 9.61067015,58.4990239 C3.39500597,52.336397 0.000102985075,43.7175761 0.000102985075,34.2640612 C0.000102985075,15.3560015 15.3562075,-0.000102985075 34.2642672,-0.000102985075 C53.1723269,-0.000102985075 68.5279164,15.3560015 68.5279164,34.2640612 C68.5279164,49.4636284 58.2906851,63.0957627 43.7177821,67.4309194 C43.1956478,67.5879716 42.6735134,67.3263896 42.4644537,66.8567776 L40.5319388,62.7301657 C38.494894,63.2002925 36.3528045,63.4093522 34.2642672,63.4093522 C18.1764537,63.4093522 5.11897612,50.2993522 5.11897612,34.2640612 C5.11897612,18.2287701 18.1764537,5.11825522 34.2642672,5.11825522 C39.2260881,5.11825522 44.0833791,6.37209851 48.3665284,8.7747403 C48.8886627,9.03632239 49.0457149,9.71499403 48.7846478,10.1851209 C48.5230657,10.7072552 47.844394,10.8643075 47.3742672,10.6032403 C43.4047075,8.40914328 38.860491,7.20782239 34.2642672,7.20782239 C19.3257672,7.20782239 7.20802836,19.3255612 7.20802836,34.2640612 C7.20802836,49.2025612 19.3257672,61.3197851 34.2642672,61.3197851 C36.5098567,61.3197851 38.7039537,61.0587179 40.8975358,60.4845761 C41.3676627,60.3800463 41.889797,60.588591 42.0988567,61.0587179 L43.9788493,65.1328075 C57.2459015,60.7976507 66.4388642,48.2097851 66.4388642,34.2640612 C66.4388642,16.5053149 52.0224985,2.08946418 34.2642672,2.08946418 C16.5055209,2.08946418 2.08915522,16.5053149 2.08915522,34.2640612 C2.08915522,53.4851955 15.8783418,66.4386582 36.4578493,66.4386582 C37.032506,66.4386582 37.5026328,66.9087851 37.5026328,67.4834418 C37.5026328,68.0580985 36.9799836,68.5277104 36.4053269,68.5277104" id="Fill-7" fill="#F86B65" mask="url(#mask-2)"></path>
                    </g>
                </g>
                <path d="M29.4640299,25.2493657 C31.1797612,25.2782015 32.5674851,26.6834328 32.5674851,28.4058582 L32.5674851,28.4058582 C32.5674851,29.2554851 32.2343284,30.0525896 31.6308358,30.649903 L31.6308358,30.649903 C31.0319776,31.2420672 30.2518657,31.5618358 29.3764925,31.5618358 L29.3764925,31.5618358 C29.3682537,31.5618358 29.3605299,31.5618358 29.3517761,31.5618358 L29.3517761,31.5618358 L25.1968433,31.5592612 L25.1968433,25.2493657 L20.4162761,25.2493657 L20.4162761,31.5623507 L36.6987313,31.5623507 C37.1245746,30.5798731 37.3480522,29.5103731 37.3480522,28.4058582 L37.3480522,28.4058582 C37.3480522,27.2848657 37.1142761,26.2174254 36.6935821,25.2493657 L36.6935821,25.2493657 L29.4640299,25.2493657 Z" id="Fill-11"></path>
                <path d="M22.8065597,20.4682836 C21.486291,20.4682836 20.4162761,21.5388134 20.4162761,22.8585672 L20.4162761,22.8585672 L20.4162761,39.7409104 L17.4781119,39.7409104 C16.1573284,39.7409104 15.0867985,40.8114403 15.0867985,42.131709 L15.0867985,42.131709 C15.0867985,43.4519776 16.1573284,44.5219925 17.4781119,44.5219925 L17.4781119,44.5219925 L20.4162761,44.5219925 L20.4162761,46.8628433 C20.4162761,48.182597 21.486291,49.2531269 22.8065597,49.2531269 L22.8065597,49.2531269 C24.1268284,49.2531269 25.1968433,48.182597 25.1968433,46.8628433 L25.1968433,46.8628433 L25.1968433,44.5219925 L28.1350075,44.5219925 C29.4547612,44.5219925 30.525291,43.4519776 30.525291,42.131709 L30.525291,42.131709 C30.525291,40.8114403 29.4547612,39.7409104 28.1350075,39.7409104 L28.1350075,39.7409104 L25.1968433,39.7409104 L25.1968433,36.3398284 L29.3234552,36.3429179 C31.4650299,36.3583657 33.4737537,35.5514776 34.9927836,34.0489254 L34.9927836,34.0489254 C36.5118134,32.5468881 37.3480522,30.5422836 37.3480522,28.4058582 L37.3480522,28.4058582 C37.3480522,24.0289925 33.7873433,20.4682836 29.4104776,20.4682836 L29.4104776,20.4682836 L22.8065597,20.4682836 Z M25.1968433,31.5592612 L25.1968433,25.2493657 L29.4104776,25.2493657 C31.1509254,25.2493657 32.5674851,26.6654104 32.5674851,28.4058582 L32.5674851,28.4058582 C32.5674851,29.2554851 32.2343284,30.0525896 31.6308358,30.649903 L31.6308358,30.649903 C31.0319776,31.2420672 30.2518657,31.5618358 29.3764925,31.5618358 L29.3764925,31.5618358 C29.3682537,31.5618358 29.3605299,31.5618358 29.3517761,31.5618358 L29.3517761,31.5618358 L25.1968433,31.5592612 Z" id="Fill-13" fill="url(#linearGradient-3)"></path>
            </g>
        </g>
    </g>
</svg>