<?xml version="1.0" encoding="UTF-8"?>
<svg width="95px" height="69px" viewBox="0 0 95 69" version="1.1" xmlns="http://www.w3.org/2000/svg" xmlns:xlink="http://www.w3.org/1999/xlink">
    <!-- Generator: Sketch 47.1 (45422) - http://www.bohemiancoding.com/sketch -->
    <title>1-13</title>
    <desc>Created with Sketch.</desc>
    <defs>
        <linearGradient x1="-0.103339192%" y1="50.0330163%" x2="100.013005%" y2="50.0330163%" id="linearGradient-1">
            <stop stop-color="#F3AF69" offset="0%"></stop>
            <stop stop-color="#FA5B5B" offset="100%"></stop>
        </linearGradient>
        <linearGradient x1="-0.191455126%" y1="49.988248%" x2="99.9118705%" y2="49.988248%" id="linearGradient-2">
            <stop stop-color="#F3AF69" offset="0%"></stop>
            <stop stop-color="#FA5B5B" offset="100%"></stop>
        </linearGradient>
    </defs>
    <g id="Page-1" stroke="none" stroke-width="1" fill="none" fill-rule="evenodd">
        <g id="Главная" transform="translate(-448.000000, -1175.000000)" fill-rule="nonzero">
            <g id="1-13" transform="translate(448.000000, 1175.000000)">
                <path d="M72.5737705,24.2278195 C70.8606557,24.2278195 69.1994536,24.3834586 67.6420765,24.7466165 C63.3852459,10.1684211 49.784153,0 34.5218579,0 C15.4699454,0 0,15.4601504 0,34.5 C0,53.5398496 15.4699454,69 34.5218579,69 C42.3087432,69 49.8360656,66.3541353 55.9098361,61.581203 C60.010929,66.1466165 65.9808743,69 72.5737705,69 C84.9289617,69 95,58.9353383 95,46.5879699 C95,34.2924812 84.9808743,24.2278195 72.5737705,24.2278195 Z M34.5218579,66.924812 C16.6639344,66.924812 2.1284153,52.3984962 2.1284153,34.5518797 C2.1284153,16.7052632 16.6639344,2.17894737 34.5218579,2.17894737 C48.7978142,2.17894737 61.568306,11.6729323 65.6174863,25.3691729 C64.6830601,25.6804511 63.7486339,26.043609 62.8661202,26.5105263 C59.284153,13.8 47.7595628,5.08421053 34.5218579,5.08421053 C18.273224,5.08421053 5.08743169,18.2616541 5.08743169,34.5 C5.08743169,50.7383459 18.3251366,63.9676692 34.5737705,63.9676692 C41.3224044,63.9676692 47.8114754,61.6849624 53.0546448,57.4827068 C53.5218579,58.3646617 54.0928962,59.1947368 54.6639344,59.9729323 C48.9016393,64.4345865 41.7896175,66.924812 34.5218579,66.924812 Z M72.5737705,66.924812 C61.3606557,66.924812 52.2759563,57.8458647 52.2759563,46.6398496 C52.2759563,41.2962406 54.352459,36.2120301 58.0901639,32.424812 C58.5054645,32.0097744 58.5054645,31.3353383 58.0901639,30.9203008 C57.6748634,30.5052632 57,30.5052632 56.5846995,30.9203008 C52.431694,35.1225564 50.147541,40.7255639 50.147541,46.6398496 C50.147541,49.8045113 50.8224044,52.8135338 52.0163934,55.5112782 C47.136612,59.6097744 40.9071038,61.8406015 34.5218579,61.8406015 C19.4153005,61.8406015 7.16393443,49.5969925 7.16393443,34.5 C7.16393443,19.4030075 19.4153005,7.1593985 34.5218579,7.1593985 C47.0327869,7.1593985 57.9344262,15.6157895 61.0491803,27.7556391 C61.0491803,27.8593985 61.1010929,27.9112782 61.1530055,27.9631579 C61.1530055,28.118797 61.204918,28.3263158 61.3087432,28.4819549 C61.6202186,29.0007519 62.2431694,29.156391 62.7622951,28.8451128 C65.773224,27.1330827 68.9918033,26.3030075 72.6256831,26.3030075 C83.8387978,26.3030075 92.9234973,35.3819549 92.9234973,46.5879699 C92.8715847,57.793985 83.7868852,66.924812 72.5737705,66.924812 Z" id="Shape" fill="#F86B65"></path>
                <path d="M38.6748634,36.4714286 C41.5300546,36.4714286 44.1775956,35.4338346 46.2021858,33.4105263 C48.226776,31.4390977 49.3169399,28.7413534 49.3169399,25.9398496 C49.3169399,20.1293233 44.5928962,15.4082707 38.7786885,15.4082707 L30.0054645,15.4082707 C28.2404372,15.4082707 26.8387978,16.8090226 26.8387978,18.5729323 L26.8387978,40.9849624 L22.9453552,40.9849624 C21.1803279,40.9849624 19.7786885,42.3857143 19.7786885,44.1496241 C19.7786885,45.9135338 21.1803279,47.3142857 22.9453552,47.3142857 L26.8387978,47.3142857 L26.8387978,50.4270677 C26.8387978,52.1909774 28.2404372,53.5917293 30.0054645,53.5917293 C31.7704918,53.5917293 33.1721311,52.1909774 33.1721311,50.4270677 L33.1721311,47.3142857 L37.0655738,47.3142857 C38.8306011,47.3142857 40.2322404,45.9135338 40.2322404,44.1496241 C40.2322404,42.3857143 38.8306011,40.9849624 37.0655738,40.9849624 L33.1721311,40.9849624 L33.1721311,36.4714286 L38.6748634,36.4714286 Z M33.1721311,21.737594 L38.7786885,21.737594 C41.1147541,21.737594 42.9836066,23.6052632 42.9836066,25.9398496 C42.9836066,27.081203 42.5163934,28.118797 41.7377049,28.8969925 C40.9590164,29.675188 39.8688525,30.0902256 38.726776,30.0902256 L33.2240437,30.0902256 L33.2240437,21.737594 L33.1721311,21.737594 Z" id="Shape" fill="url(#linearGradient-1)"></path>
                <path d="M82.4371585,39.1172932 C83.579235,37.7684211 83.4234973,35.7969925 82.0737705,34.6556391 C80.7240437,33.5142857 78.7513661,33.6699248 77.6092896,35.018797 L72.6256831,40.8293233 L67.6420765,35.018797 C66.5,33.6699248 64.4754098,33.5142857 63.1775956,34.6556391 C61.8278689,35.7969925 61.6721311,37.8203008 62.8142077,39.1172932 L69.4590164,46.8473684 L69.4590164,51.5684211 L67.4344262,51.5684211 C65.6693989,51.5684211 64.2677596,52.9691729 64.2677596,54.7330827 C64.2677596,56.4969925 65.6693989,57.8977444 67.4344262,57.8977444 L69.4590164,57.8977444 L69.4590164,58.312782 C69.4590164,60.0766917 70.8606557,61.4774436 72.6256831,61.4774436 C74.3907104,61.4774436 75.7923497,60.0766917 75.7923497,58.312782 L75.7923497,57.8977444 L77.8169399,57.8977444 C79.5819672,57.8977444 80.9836066,56.4969925 80.9836066,54.7330827 C80.9836066,52.9691729 79.5819672,51.5684211 77.8169399,51.5684211 L75.7923497,51.5684211 L75.7923497,46.8473684 L82.4371585,39.1172932 Z" id="Shape" fill="url(#linearGradient-2)"></path>
            </g>
        </g>
    </g>
</svg>