<?xml version="1.0" encoding="UTF-8"?>
<svg width="95px" height="69px" viewBox="0 0 95 69" version="1.1" xmlns="http://www.w3.org/2000/svg" xmlns:xlink="http://www.w3.org/1999/xlink">
    <!-- Generator: Sketch 47.1 (45422) - http://www.bohemiancoding.com/sketch -->
    <title>1-20</title>
    <desc>Created with Sketch.</desc>
    <defs>
        <polygon id="path-1" points="0 68.6073694 0 0 94.6012582 0 94.6012582 68.6073694"></polygon>
        <path d="M0.178641304,0.454164179 L0.178641304,8.63735821 L21.3414402,8.63735821 C21.8949185,7.36343284 22.1855978,5.97725373 22.1855978,4.54576119 C22.1855978,3.09212687 21.8820109,1.70852239 21.3347283,0.454164179 L0.178641304,0.454164179 Z M6.39236413,8.63323881 L6.39236413,0.454164179 L11.8688043,0.454164179 C14.13125,0.454164179 15.9713587,2.28987313 15.9713587,4.54576119 C15.9713587,5.64718657 15.5386957,6.67961194 14.753913,7.45457463 C13.9763587,8.22129851 12.962337,8.63684328 11.8244022,8.63684328 C11.8135598,8.63684328 11.8027174,8.63684328 11.7923913,8.63684328 L6.39236413,8.63323881 Z M0.178641304,0.454164179 L22.1855978,0.454164179 L22.1855978,8.63735821 L0.178641304,8.63735821 L0.178641304,0.454164179 Z" id="path-3"></path>
        <linearGradient x1="4.13981544%" y1="0%" x2="97.7532769%" y2="97.65625%" id="linearGradient-5">
            <stop stop-color="#F3AF69" offset="0%"></stop>
            <stop stop-color="#FA615C" offset="92.4006417%"></stop>
            <stop stop-color="#FA5B5B" offset="100%"></stop>
        </linearGradient>
    </defs>
    <g id="Page-1" stroke="none" stroke-width="1" fill="none" fill-rule="evenodd">
        <g id="Страница-Квартиры" transform="translate(-99.000000, -1034.000000)">
            <g id="1-20" transform="translate(99.000000, 1034.000000)">
                <g id="Group-3">
                    <mask id="mask-2" fill="white">
                        <use xlink:href="#path-1"></use>
                    </mask>
                    <g id="Clip-2"></g>
                    <path d="M72.267481,66.4534366 C61.1535136,66.4534366 52.0407418,57.418041 52.0407418,46.2812351 C52.0407418,40.975444 54.0956332,35.9322649 57.8352255,32.1501381 C58.2565299,31.729444 58.2565299,31.046653 57.8352255,30.6789963 C57.4134049,30.2588172 56.7287853,30.2588172 56.360144,30.6789963 C52.1992473,34.8818172 49.9342201,40.3971828 49.9342201,46.2812351 C49.9342201,49.4330933 50.5661766,52.4273843 51.7774266,55.106541 C46.8792473,59.1512799 40.7166386,61.4102575 34.3428614,61.4102575 C19.3313125,61.4102575 7.11090489,49.2230037 7.11090489,34.2510336 C7.11090489,19.2795784 19.3313125,7.0918097 34.3428614,7.0918097 C46.8265842,7.0918097 57.6772364,15.4969366 60.7322092,27.5266231 C60.7322092,27.6316679 60.7848723,27.6847052 60.8375353,27.7372276 C60.8375353,27.8947948 60.8901984,28.1048843 60.9955245,28.2624515 C61.3115027,28.7881903 61.9434592,28.9452425 62.4179429,28.6301082 C65.3675897,26.8968694 68.6332147,26.1085187 72.267481,26.1085187 C83.3814484,26.1085187 92.4942201,35.1439142 92.4942201,46.2812351 C92.4942201,57.418041 83.4341114,66.4534366 72.267481,66.4534366 M34.3955245,66.4534366 C16.5918016,66.4534366 2.1595462,52.0072052 2.1595462,34.2510336 C2.1595462,16.4948619 16.5918016,2.10115299 34.3955245,2.10115299 C48.6171277,2.10115299 61.3115027,11.5572425 65.3144103,25.1105933 C64.3664755,25.4257276 63.4712038,25.7933843 62.5759321,26.2140784 C58.9938125,13.658653 47.5112038,4.99091418 34.3955245,4.99091418 C18.2248723,4.99091418 5.05652989,18.1240858 5.05652989,34.2510336 C5.05652989,50.3784963 18.2248723,63.5116679 34.3955245,63.5116679 C41.0847636,63.5116679 47.5638668,61.2001679 52.7785408,57.0498694 C53.2525082,57.8907425 53.7791386,58.7311007 54.3584321,59.5189366 C48.7224538,63.9843694 41.6645734,66.4534366 34.3955245,66.4534366 M72.267481,24.0601455 C70.5296005,24.0601455 68.8965299,24.2177127 67.3693016,24.5848545 C63.1025625,10.0861007 49.5650625,-0.000257462687 34.3955245,-0.000257462687 C15.4332147,-0.000257462687 -0.000154891304,15.3918918 -0.000154891304,34.303556 C-0.000154891304,53.2152201 15.4332147,68.6073694 34.3955245,68.6073694 C42.1385408,68.6073694 49.6703886,65.9807351 55.6755245,61.2001679 C59.7837582,65.7181231 65.6835679,68.6073694 72.267481,68.6073694 C84.5932147,68.6073694 94.6012582,58.6265709 94.6012582,46.3337575 C94.6012582,34.040944 84.5932147,24.0601455 72.267481,24.0601455" id="Fill-1" fill="#F86B65" mask="url(#mask-2)"></path>
                </g>
                <g id="Group-6" transform="translate(25.815217, 20.082090)">
                    <mask id="mask-4" fill="white">
                        <use xlink:href="#path-3"></use>
                    </mask>
                    <g id="Clip-5"></g>
                    <path d="M0.178641304,0.454164179 L0.178641304,8.63735821 L21.3414402,8.63735821 C21.8949185,7.36343284 22.1855978,5.97725373 22.1855978,4.54576119 L22.1855978,4.54576119 C22.1855978,3.09212687 21.8820109,1.70852239 21.3347283,0.454164179 L21.3347283,0.454164179 L0.178641304,0.454164179 Z M6.39236413,8.63323881 L6.39236413,0.454164179 L11.8688043,0.454164179 C14.13125,0.454164179 15.9713587,2.28987313 15.9713587,4.54576119 L15.9713587,4.54576119 C15.9713587,5.64718657 15.5386957,6.67961194 14.753913,7.45457463 L14.753913,7.45457463 C13.9763587,8.22129851 12.962337,8.63684328 11.8244022,8.63684328 L11.8244022,8.63684328 C11.8135598,8.63684328 11.8027174,8.63684328 11.7923913,8.63684328 L11.7923913,8.63684328 L6.39236413,8.63323881 Z" id="Fill-4" mask="url(#mask-4)"></path>
                </g>
                <path d="M29.100462,14.3391269 C27.3847826,14.3391269 25.9938587,15.7258209 25.9938587,17.4374328 L25.9938587,17.4374328 L25.9938587,39.3207313 L22.1747554,39.3207313 C20.4590761,39.3207313 19.0681522,40.7084552 19.0681522,42.4195522 L19.0681522,42.4195522 C19.0681522,44.1306493 20.4590761,45.5178582 22.1747554,45.5178582 L22.1747554,45.5178582 L25.9938587,45.5178582 L25.9938587,48.5517985 C25.9938587,50.2628955 27.3847826,51.6506194 29.100462,51.6506194 L29.100462,51.6506194 C30.8161413,51.6506194 32.2075815,50.2628955 32.2075815,48.5517985 L32.2075815,48.5517985 L32.2075815,45.5178582 L36.0261685,45.5178582 C37.7423641,45.5178582 39.133288,44.1306493 39.133288,42.4195522 L39.133288,42.4195522 C39.133288,40.7084552 37.7423641,39.3207313 36.0261685,39.3207313 L36.0261685,39.3207313 L32.2075815,39.3207313 L32.2075815,34.9119403 L37.5714674,34.9165746 C40.3543478,34.9356269 42.9652989,33.8903284 44.9391304,31.9423657 L44.9391304,31.9423657 C46.912962,29.9949179 48.0008152,27.3971194 48.0008152,24.6278507 L48.0008152,24.6278507 C48.0008152,18.9538881 43.372663,14.3391269 37.6840217,14.3391269 L37.6840217,14.3391269 L29.100462,14.3391269 Z M32.2075815,28.7153284 L32.2075815,20.5362537 L37.6840217,20.5362537 C39.9464674,20.5362537 41.7865761,22.3719627 41.7865761,24.6278507 L41.7865761,24.6278507 C41.7865761,25.7292761 41.353913,26.7617015 40.5691304,27.5366642 L40.5691304,27.5366642 C39.7915761,28.3033881 38.7775543,28.7189328 37.6396196,28.7189328 L37.6396196,28.7189328 C37.6287772,28.7189328 37.6179348,28.7189328 37.6076087,28.7189328 L37.6076087,28.7189328 L32.2075815,28.7153284 Z" id="Fill-7" fill="url(#linearGradient-5)"></path>
                <path d="M69.2116304,39.2599701 L69.2116304,43.2408582 L65.2200815,43.2408582 C63.5642935,43.2408582 62.2084783,44.5930522 62.2084783,46.2444179 L62.2084783,46.2444179 C62.2084783,47.8968134 63.5642935,49.2479776 65.2200815,49.2479776 L65.2200815,49.2479776 L69.2116304,49.2479776 L69.2116304,53.2293806 C69.2116304,54.8812612 70.5674457,56.2329403 72.22375,56.2329403 L72.22375,56.2329403 C73.8800543,56.2329403 75.2353533,54.8812612 75.2353533,53.2293806 L75.2353533,53.2293806 L75.2353533,49.2479776 L79.2269022,49.2479776 C80.8832065,49.2479776 82.2385054,47.8968134 82.2385054,46.2444179 L82.2385054,46.2444179 C82.2385054,44.5930522 80.8832065,43.2408582 79.2269022,43.2408582 L79.2269022,43.2408582 L75.2353533,43.2408582 L75.2353533,39.2599701 C75.2353533,37.6080896 73.8800543,36.2564104 72.22375,36.2564104 L72.22375,36.2564104 C70.5674457,36.2564104 69.2116304,37.6080896 69.2116304,39.2599701" id="Fill-9" fill="url(#linearGradient-5)"></path>
            </g>
        </g>
    </g>
</svg>