<?xml version="1.0" encoding="UTF-8"?>
<svg width="18px" height="15px" viewBox="0 0 18 15" version="1.1" xmlns="http://www.w3.org/2000/svg" xmlns:xlink="http://www.w3.org/1999/xlink">
    <!-- Generator: Sketch 47.1 (45422) - http://www.bohemiancoding.com/sketch -->
    <title></title>
    <desc>Created with Sketch.</desc>
    <defs></defs>
    <g id="Page-1" stroke="none" stroke-width="1" fill="none" fill-rule="evenodd">
        <g id="Главная" transform="translate(-854.000000, -3839.000000)" fill="#FFFFFF">
            <g id="Group-4" transform="translate(0.000000, 3769.000000)">
                <g id="Group-3" transform="translate(826.000000, 69.000000)">
                    <path d="M45.5892857,2.69642857 C45.0907713,3.42559888 44.4880988,4.04687243 43.78125,4.56026786 C43.7886905,4.66443504 43.7924107,4.82068348 43.7924107,5.02901786 C43.7924107,5.9962846 43.6510431,6.96167673 43.3683036,7.92522321 C43.0855641,8.8887697 42.6558809,9.81323962 42.0792411,10.6986607 C41.5026013,11.5840818 40.8162242,12.3671841 40.0200893,13.0479911 C39.2239544,13.728798 38.2641425,14.2719474 37.140625,14.6774554 C36.0171075,15.0829633 34.8154826,15.2857143 33.5357143,15.2857143 C31.5193352,15.2857143 29.6741155,14.7462852 28,13.6674107 C28.260418,13.6971728 28.5505936,13.7120536 28.8705357,13.7120536 C30.5446512,13.7120536 32.0364518,13.1986658 33.3459821,12.171875 C32.5647282,12.156994 31.8653305,11.917041 31.2477679,11.4520089 C30.6302052,10.9869768 30.2061023,10.3936048 29.9754464,9.671875 C30.2209834,9.70907757 30.4479156,9.72767857 30.65625,9.72767857 C30.9761921,9.72767857 31.2924092,9.68675636 31.6049107,9.60491071 C30.7715732,9.43377891 30.0814759,9.01897651 29.5345982,8.36049107 C28.9877205,7.70200564 28.7142857,6.93750435 28.7142857,6.06696429 L28.7142857,6.02232143 C29.2202406,6.30506094 29.76339,6.45758917 30.34375,6.47991071 C29.8526761,6.15252813 29.462055,5.72470502 29.171875,5.19642857 C28.881695,4.66815212 28.7366071,4.09524118 28.7366071,3.47767857 C28.7366071,2.82291339 28.900296,2.21652065 29.2276786,1.65848214 C30.1279807,2.76711864 31.2235799,3.65438655 32.5145089,4.3203125 C33.805438,4.98623845 35.1874926,5.35639844 36.6607143,5.43080357 C36.6011902,5.14806406 36.5714286,4.8727692 36.5714286,4.60491071 C36.5714286,3.60788192 36.9229876,2.75781602 37.6261161,2.0546875 C38.3292446,1.35155898 39.1793105,1 40.1763393,1 C41.2180112,1 42.0959786,1.37946049 42.8102679,2.13839286 C43.6212838,1.98214208 44.383925,1.69196641 45.0982143,1.26785714 C44.8229153,2.12351618 44.2946468,2.78571194 43.5133929,3.25446429 C44.2053606,3.18005915 44.897318,2.99404911 45.5892857,2.69642857 Z" id=""></path>
                </g>
            </g>
        </g>
    </g>
</svg>