<?xml version="1.0" encoding="UTF-8"?>
<svg width="22px" height="13px" viewBox="0 0 22 13" version="1.1" xmlns="http://www.w3.org/2000/svg" xmlns:xlink="http://www.w3.org/1999/xlink">
    <!-- Generator: Sketch 47.1 (45422) - http://www.bohemiancoding.com/sketch -->
    <title></title>
    <desc>Created with Sketch.</desc>
    <defs></defs>
    <g id="Page-1" stroke="none" stroke-width="1" fill="none" fill-rule="evenodd">
        <g id="Главная" transform="translate(-826.000000, -3840.000000)" fill="#FFFFFF">
            <g id="Group-4" transform="translate(0.000000, 3769.000000)">
                <g id="Group-3" transform="translate(826.000000, 69.000000)">
                    <path d="M21.40625,2.88329084 C21.5773818,3.3594837 21.0193517,4.45322276 19.7321429,6.16454084 C19.5535705,6.40263727 19.3117575,6.71885435 19.0066964,7.11320156 C18.7090759,7.49266774 18.5044648,7.76052221 18.3928571,7.91677299 C18.2812494,8.07302377 18.1677833,8.25717371 18.0524554,8.46922834 C17.9371274,8.68128298 17.892485,8.83753141 17.9185268,8.93797834 C17.9445686,9.03842527 17.9929312,9.16677221 18.0636161,9.32302299 C18.1343009,9.47927377 18.2552075,9.63924241 18.4263393,9.8029337 C18.5974711,9.966625 18.8095225,10.1637956 19.0625,10.3944516 C19.0922621,10.4093326 19.1108631,10.4242134 19.1183036,10.4390944 C20.167416,11.4138017 20.8779743,12.2359661 21.25,12.9056123 C21.2723215,12.9428148 21.2965028,12.9893174 21.3225446,13.0451212 C21.3485864,13.1009251 21.3746278,13.1995104 21.4006696,13.3408801 C21.4267114,13.4822499 21.4248513,13.6087367 21.3950893,13.7203444 C21.3653272,13.8319521 21.2723222,13.9342576 21.1160714,14.0272641 C20.9598206,14.1202705 20.7403288,14.166773 20.4575893,14.166773 L17.6004464,14.2114158 C17.4218741,14.2486184 17.2135429,14.2300174 16.9754464,14.1556123 C16.73735,14.0812071 16.5438996,13.9993627 16.3950893,13.9100766 L16.171875,13.776148 C15.9486596,13.6198972 15.6882455,13.3818043 15.390625,13.0618623 C15.0930045,12.7419202 14.8381707,12.4536046 14.6261161,12.1969069 C14.4140614,11.9402092 14.1871292,11.7244376 13.9453125,11.5495855 C13.7034958,11.3747334 13.4933045,11.3170703 13.3147321,11.3765944 C13.2924106,11.3840349 13.262649,11.3970556 13.2254464,11.4156569 C13.1882439,11.4342582 13.1250004,11.4882011 13.0357143,11.5774873 C12.9464281,11.6667734 12.8664438,11.7765194 12.7957589,11.9067283 C12.7250741,12.0369373 12.6618306,12.2303878 12.6060268,12.4870855 C12.5502229,12.7437832 12.5260416,13.0320988 12.5334821,13.3520408 C12.5334821,13.4636485 12.5204614,13.5659541 12.4944196,13.6589605 C12.4683778,13.7519669 12.4404763,13.8207906 12.4107143,13.8654337 L12.3660714,13.9212373 C12.2321422,14.062607 12.0349715,14.1444514 11.7745536,14.166773 L10.4910714,14.166773 C9.96279498,14.196535 9.41964565,14.1351517 8.86160714,13.9826212 C8.30356864,13.8300907 7.81436222,13.63292 7.39397321,13.3911033 C6.97358421,13.1492867 6.59040352,12.9037534 6.24441964,12.6544962 C5.89843577,12.405239 5.63616161,12.1913275 5.45758929,12.0127551 L5.17857143,11.744898 C5.10416629,11.6704929 5.00186077,11.5588868 4.87165179,11.4100766 C4.7414428,11.2612663 4.47544844,10.922728 4.07366071,10.3944516 C3.67187299,9.86617511 3.2775317,9.30442477 2.890625,8.7091837 C2.5037183,8.11394263 2.04799369,7.32898024 1.5234375,6.35427299 C0.998881306,5.37956573 0.513395089,4.36767109 0.0669642857,3.3185587 C0.0223212054,3.19951049 0,3.09906506 0,3.01721942 C0,2.93537377 0.0111606027,2.87585055 0.0334821429,2.83864799 L0.078125,2.7716837 C0.189732701,2.63031395 0.401784152,2.55963013 0.714285714,2.55963013 L3.77232143,2.5373087 C3.86160759,2.55218973 3.94717221,2.57637103 4.02901786,2.60985334 C4.1108635,2.64333565 4.17038672,2.67495736 4.20758929,2.70471942 L4.26339286,2.73820156 C4.38244107,2.82004721 4.47172589,2.93909363 4.53125,3.09534442 C4.68006027,3.46737008 4.85118951,3.85241088 5.04464286,4.25047834 C5.23809621,4.64854581 5.39062444,4.95174218 5.50223214,5.16007656 L5.68080357,5.48373727 C5.89657846,5.93016808 6.10490971,6.31706897 6.30580357,6.64445156 C6.50669743,6.97183415 6.68712718,7.22666791 6.84709821,7.40896049 C7.00706925,7.59125306 7.16145759,7.7344808 7.31026786,7.83864799 C7.45907812,7.94281517 7.58556496,7.99489799 7.68973214,7.99489799 C7.79389933,7.99489799 7.89434475,7.97629698 7.99107143,7.93909442 C8.00595246,7.9316539 8.02455346,7.9130529 8.046875,7.88329084 C8.06919654,7.85352879 8.11383895,7.77168437 8.18080357,7.63775513 C8.24776819,7.50382589 8.2979909,7.32897645 8.33147321,7.11320156 C8.36495552,6.89742667 8.40029743,6.5960904 8.4375,6.2091837 C8.47470257,5.822277 8.47470257,5.35725189 8.4375,4.81409442 C8.42261897,4.51647388 8.38913717,4.24489921 8.33705357,3.99936227 C8.28496998,3.75382533 8.23288717,3.58269609 8.18080357,3.48596942 L8.11383929,3.35204084 C7.92782645,3.09906339 7.61160937,2.93909475 7.16517857,2.87213013 C7.0684519,2.8572491 7.0870529,2.76796428 7.22098214,2.60427299 C7.34003036,2.46290323 7.48139799,2.35129721 7.64508929,2.26945156 C8.0394365,2.07599821 8.92856451,1.98671339 10.3125,2.00159442 C10.9226221,2.00903493 11.4248492,2.05739754 11.8191964,2.1466837 C11.9680067,2.18388627 12.0926334,2.23410898 12.1930804,2.29735334 C12.2935273,2.36059771 12.3697914,2.44988253 12.421875,2.56521049 C12.4739586,2.68053844 12.5130207,2.79958487 12.5390625,2.92235334 C12.5651043,3.04512181 12.578125,3.21439096 12.578125,3.43016584 C12.578125,3.64594073 12.5744048,3.85055178 12.5669643,4.04400513 C12.5595238,4.23745848 12.5502233,4.49973264 12.5390625,4.83083549 C12.5279017,5.16193833 12.5223214,5.46885491 12.5223214,5.75159442 C12.5223214,5.83344006 12.5186012,5.9896885 12.5111607,6.22034442 C12.5037202,6.45100033 12.5018601,6.62956997 12.5055804,6.7560587 C12.5093006,6.88254743 12.5223213,7.03321556 12.5446429,7.20806763 C12.5669644,7.38291969 12.6097467,7.52800753 12.6729911,7.64333549 C12.7362354,7.75866344 12.81994,7.84980837 12.9241071,7.91677299 C12.9836312,7.93165401 13.0468747,7.94653482 13.1138393,7.96141584 C13.1808039,7.97629687 13.2775291,7.93537466 13.4040179,7.83864799 C13.5305066,7.74192131 13.6718742,7.61357438 13.828125,7.45360334 C13.9843758,7.29363231 14.1778262,7.04437885 14.4084821,6.70583549 C14.6391381,6.36729213 14.8921117,5.96737053 15.1674107,5.5060587 C15.6138415,4.73224531 16.011903,3.89520011 16.3616071,2.99489799 C16.3913692,2.92049285 16.4285712,2.85538934 16.4732143,2.79958549 C16.5178574,2.74378164 16.5587796,2.70471953 16.5959821,2.68239799 L16.640625,2.64891584 L16.6964286,2.62101406 C16.7187501,2.60985329 16.7671127,2.59869269 16.8415179,2.58753192 C16.915923,2.57637115 16.990327,2.57451104 17.0647321,2.58195156 L20.2790179,2.55963013 C20.5691979,2.52242756 20.8072907,2.53172806 20.9933036,2.58753192 C21.1793164,2.64333577 21.2946426,2.70471908 21.3392857,2.7716837 L21.40625,2.88329084 Z" id=""></path>
                </g>
            </g>
        </g>
    </g>
</svg>