<?xml version="1.0" encoding="UTF-8"?>
<svg width="61px" height="69px" viewBox="0 0 61 69" version="1.1" xmlns="http://www.w3.org/2000/svg" xmlns:xlink="http://www.w3.org/1999/xlink">
    <!-- Generator: Sketch 47.1 (45422) - http://www.bohemiancoding.com/sketch -->
    <title>1-12</title>
    <desc>Created with Sketch.</desc>
    <defs>
        <linearGradient x1="-0.157381963%" y1="50.0260216%" x2="100.066231%" y2="50.0260216%" id="linearGradient-1">
            <stop stop-color="#F3AF69" offset="0%"></stop>
            <stop stop-color="#FA5B5B" offset="100%"></stop>
        </linearGradient>
    </defs>
    <g id="Page-1" stroke="none" stroke-width="1" fill="none" fill-rule="evenodd">
        <g id="Главная" transform="translate(-149.000000, -1175.000000)" fill-rule="nonzero">
            <g id="1-12" transform="translate(149.000000, 1175.000000)">
                <path d="M30.3966102,68.5880597 C30.2415254,68.5880597 30.0347458,68.5365672 29.9313559,68.4850746 L12.0966102,58.5985075 C4.65254237,54.4276119 0,46.5492537 0,38.0529851 L0,7.00298507 C0,6.64253731 0.155084746,6.33358209 0.465254237,6.17910448 C0.827118644,5.92164179 10.2872881,0 30.3966102,0 C50.5059322,0 59.9661017,5.92164179 60.3279661,6.12761194 C60.6381356,6.33358209 60.7932203,6.64253731 60.7932203,6.95149254 L60.7932203,38.0014925 C60.7932203,46.4977612 56.140678,54.3761194 48.6966102,58.4955224 L35.4110169,65.8589552 C34.9457627,66.1164179 34.3254237,65.9619403 34.0669492,65.4470149 C33.8084746,64.9835821 33.9635593,64.3656716 34.4805085,64.108209 L47.7661017,56.7447761 C54.5898305,52.9343284 58.8288136,45.7768657 58.8288136,38.0014925 L58.8288136,7.56940299 C56.709322,6.43656716 47.4559322,2.00820896 30.4483051,2.00820896 C13.3889831,2.00820896 4.13559322,6.43656716 2.06779661,7.56940299 L2.06779661,38.0529851 C2.06779661,45.8283582 6.30677966,53.0373134 13.1305085,56.7962687 L29.4661017,65.8589552 L29.4661017,62.6149254 C29.4661017,62.2544776 29.6728814,61.8940299 29.9830508,61.7395522 L45.4398305,53.191791 C51.229661,49.9477612 54.8483051,43.7686567 54.8483051,37.0746269 L54.8483051,10.7104478 C52.9355932,9.68059701 44.9228814,5.92164179 30.3966102,5.92164179 C15.870339,5.92164179 7.85762712,9.68059701 5.94491525,10.7104478 L5.94491525,37.0746269 C5.94491525,43.7686567 9.61525424,49.9477612 15.4567797,53.191791 L27.0881356,59.6283582 C27.5533898,59.8858209 27.7601695,60.5037313 27.5016949,60.9671642 C27.2432203,61.430597 26.6228814,61.6365672 26.1576271,61.3791045 L14.4745763,54.9425373 C7.96101695,51.3380597 3.92881356,44.4895522 3.92881356,37.0746269 L3.92881356,10.1440299 C3.92881356,9.78358209 4.08389831,9.47462687 4.3940678,9.32014925 C4.7559322,9.1141791 12.9754237,3.96492537 30.3966102,3.96492537 C47.8177966,3.96492537 56.0372881,9.1141791 56.3991525,9.32014925 C56.709322,9.5261194 56.8644068,9.83507463 56.8644068,10.1440299 L56.8644068,37.0746269 C56.8644068,44.4895522 52.8322034,51.3380597 46.3186441,54.9425373 L31.3788136,63.2328358 L31.3788136,67.6097015 C31.3788136,67.9701493 31.1720339,68.2791045 30.8618644,68.4850746 C30.7584746,68.5365672 30.6033898,68.5880597 30.3966102,68.5880597 Z" id="Shape" fill="#F86B65"></path>
                <path d="M42.3381356,15.3447761 C40.9940678,14.3664179 39.1330508,14.6238806 38.1508475,15.9626866 L30.3966102,26.3126866 L22.6940678,15.9626866 C21.7118644,14.6238806 19.7991525,14.3664179 18.5067797,15.3447761 C17.1627119,16.3231343 16.9042373,18.2283582 17.8864407,19.5156716 L27.3983051,32.2858209 L27.3983051,46.6522388 C27.3983051,48.3 28.7423729,49.638806 30.3966102,49.638806 C32.0508475,49.638806 33.3949153,48.3 33.3949153,46.6522388 L33.3949153,32.2858209 L42.9584746,19.5156716 C43.940678,18.1768657 43.6822034,16.3231343 42.3381356,15.3447761 Z" id="Shape" fill="url(#linearGradient-1)"></path>
            </g>
        </g>
    </g>
</svg>