<?xml version="1.0" encoding="UTF-8"?>
<svg width="69px" height="69px" viewBox="0 0 69 69" version="1.1" xmlns="http://www.w3.org/2000/svg" xmlns:xlink="http://www.w3.org/1999/xlink">
    <!-- Generator: Sketch 47.1 (45422) - http://www.bohemiancoding.com/sketch -->
    <title>1-15</title>
    <desc>Created with Sketch.</desc>
    <defs>
        <path d="M36.2133764,3.40368849 C36.2133714,2.55805767 35.872084,1.70848052 35.2121418,1.07619403 C34.6189478,0.507716418 33.8620075,0.232231343 33.1014627,0.232231343 C32.2559552,0.232231343 31.4068433,0.57311194 30.7745149,1.23324627 L15.8416791,17.2098358 L5.60805224,7.39381343 C4.35523881,6.19300746 2.37123134,6.24552985 1.16991045,7.49834328 C0.588716124,8.10495863 0.301125766,8.88274243 0.301125877,9.6600473 L0.301125877,9.66004738 C0.301125995,10.4887325 0.627992984,11.3168734 1.2744403,11.9364851 L13.8056642,23.9450597 C14.379806,24.5197164 15.1630075,24.832791 15.946209,24.832791 L16.0507388,24.832791 C16.8859478,24.832791 17.6691493,24.467709 18.243806,23.8410448 L35.369194,5.51433582 C35.9374653,4.92119812 36.2133767,4.16404805 36.2133764,3.40370629 L36.2133764,3.40368849 L36.2133764,3.40368849 Z" id="path-1"></path>
        <linearGradient x1="4.13981544%" y1="0%" x2="97.7532769%" y2="97.65625%" id="linearGradient-3">
            <stop stop-color="#F3AF69" offset="0%"></stop>
            <stop stop-color="#FA615C" offset="92.4006417%"></stop>
            <stop stop-color="#FA5B5B" offset="100%"></stop>
        </linearGradient>
        <polygon id="path-4" points="0 68.5022731 0 0.000205970149 68.5024791 0.000205970149 68.5024791 68.5022731"></polygon>
    </defs>
    <g id="Page-1" stroke="none" stroke-width="1" fill="none" fill-rule="evenodd">
        <g id="Страница-Квартиры" transform="translate(-99.000000, -857.000000)">
            <g id="1-15" transform="translate(99.000000, 857.000000)">
                <g id="Group-3" transform="translate(16.477612, 24.716418)">
                    <mask id="mask-2" fill="white">
                        <use xlink:href="#path-1"></use>
                    </mask>
                    <g id="Clip-2"></g>
                    <path d="M30.7745149,1.23324627 L15.8416791,17.2098358 L5.60805224,7.39381343 C4.35523881,6.19300746 2.37123134,6.24552985 1.16991045,7.49834328 L1.16991045,7.49834328 C-0.0308955224,8.75167164 0.0216268657,10.7356791 1.2744403,11.9364851 L1.2744403,11.9364851 L13.8056642,23.9450597 C14.379806,24.5197164 15.1630075,24.832791 15.946209,24.832791 L15.946209,24.832791 L16.0507388,24.832791 C16.8859478,24.832791 17.6691493,24.467709 18.243806,23.8410448 L18.243806,23.8410448 L35.369194,5.51433582 C36.5694851,4.26152239 36.4654701,2.277 35.2121418,1.07619403 L35.2121418,1.07619403 C34.6189478,0.507716418 33.8620075,0.232231343 33.1014627,0.232231343 L33.1014627,0.232231343 C32.2559552,0.232231343 31.4068433,0.57311194 30.7745149,1.23324627" id="Fill-1" fill="url(#linearGradient-3)" mask="url(#mask-2)"></path>
                </g>
                <g id="Group-6">
                    <mask id="mask-5" fill="white">
                        <use xlink:href="#path-4"></use>
                    </mask>
                    <g id="Clip-5"></g>
                    <path d="M34.2511881,68.5022731 C15.3503373,68.5022731 -0.000102985075,53.0998254 -0.000102985075,34.2509821 C-0.000102985075,15.3501313 15.3503373,0.000205970149 34.2511881,0.000205970149 C53.1520388,0.000205970149 68.5024791,15.3501313 68.5024791,34.2509821 C68.5024791,49.5489 58.2168448,63.1249075 43.4925537,67.2489448 C42.9184119,67.405997 42.3442701,67.0929224 42.1877328,66.5182657 C42.0306806,65.943609 42.3442701,65.3694672 42.9184119,65.2129299 C56.7544567,61.3489299 66.3614194,48.6096761 66.3614194,34.2509821 C66.3614194,16.4989299 51.9512328,2.08822836 34.1986657,2.08822836 C16.4466134,2.08822836 2.08843433,16.4989299 2.08843433,34.2509821 C2.08843433,51.6379522 15.9770015,65.839594 33.2069194,66.4137358 L33.2069194,61.609997 C33.2069194,61.0358552 33.6770463,60.5662433 34.2511881,60.5662433 C48.7659045,60.5662433 60.5659343,48.7662134 60.5659343,34.2509821 C60.5659343,19.7362657 48.7659045,7.93623582 34.2511881,7.93623582 C19.7364716,7.93623582 7.93644179,19.7362657 7.93644179,34.2509821 C7.93644179,45.5808851 15.1417925,55.6059672 25.8970388,59.2083851 C26.4196881,59.3654373 26.7327627,59.9921015 26.5762254,60.5137209 C26.3671657,61.0358552 25.7930239,61.3489299 25.2708896,61.1929075 C13.6794045,57.2763851 5.89991194,46.4686164 5.89991194,34.2509821 C5.89991194,18.5874672 18.6396806,5.84769851 34.3037104,5.84769851 C49.9672254,5.84769851 62.706994,18.5874672 62.706994,34.2509821 C62.706994,49.5489 50.5413672,62.0801239 35.3474642,62.6022582 L35.3474642,67.4585194 C35.2954567,68.0326612 34.8253299,68.5022731 34.2511881,68.5022731" id="Fill-4" fill="#F86B65" mask="url(#mask-5)"></path>
                </g>
            </g>
        </g>
    </g>
</svg>