<?xml version="1.0" encoding="UTF-8"?>
<svg width="69px" height="69px" viewBox="0 0 69 69" version="1.1" xmlns="http://www.w3.org/2000/svg" xmlns:xlink="http://www.w3.org/1999/xlink">
    <!-- Generator: Sketch 47.1 (45422) - http://www.bohemiancoding.com/sketch -->
    <title>1-14</title>
    <desc>Created with Sketch.</desc>
    <defs>
        <linearGradient x1="4.13981544%" y1="0%" x2="97.7532769%" y2="97.65625%" id="linearGradient-1">
            <stop stop-color="#F3AF69" offset="0%"></stop>
            <stop stop-color="#FA615C" offset="92.4006417%"></stop>
            <stop stop-color="#FA5B5B" offset="100%"></stop>
        </linearGradient>
    </defs>
    <g id="Page-1" stroke="none" stroke-width="1" fill="none" fill-rule="evenodd">
        <g id="О-компании" transform="translate(-512.000000, -1102.000000)">
            <g id="1-14" transform="translate(512.000000, 1102.000000)">
                <path d="M34.5,69.0001038 C15.4601504,69.0001038 0,53.5399534 0,34.5001038 C0,15.4602541 15.4601504,0.000103759398 34.5,0.000103759398 C53.5398496,0.000103759398 69,15.4602541 69,34.5001038 C69,49.9083744 58.6759398,63.5527353 43.8383459,67.7031113 C43.2676692,67.8587504 42.6969925,67.5474722 42.5413534,66.9767955 C42.3857143,66.4061188 42.6969925,65.8349233 43.2676692,65.679803 C57.1714286,61.7888256 66.924812,48.9226602 66.924812,34.4477053 C66.924812,16.549209 52.3984962,2.02289323 34.5,2.02289323 C16.6015038,2.02289323 2.07518797,16.6016075 2.07518797,34.5001038 C2.07518797,52.0354421 16.0827068,66.3537203 33.462406,66.9249158 L33.462406,62.0482241 C33.462406,61.4775474 33.9293233,61.0106301 34.5,61.0106301 C49.1300752,61.0106301 61.0105263,49.1301789 61.0105263,34.5001038 C61.0105263,19.8700286 49.0781955,7.98905865 34.5,7.98905865 C19.8699248,7.98905865 7.98947368,19.8700286 7.98947368,34.5001038 C7.98947368,45.9136376 15.2526316,56.0301789 26.0954887,59.6617579 C26.6142857,59.817397 26.9255639,60.4399534 26.7699248,60.9587504 C26.562406,61.4775474 25.9917293,61.7888256 25.4729323,61.6331865 C13.8,57.742209 5.96616541,46.8474722 5.96616541,34.5001038 C5.96616541,18.7286752 18.7804511,5.91387068 34.5518797,5.91387068 C50.3233083,5.91387068 63.137594,18.7286752 63.137594,34.5001038 C63.137594,49.9083744 50.893985,62.5151414 35.5894737,63.0339383 L35.5894737,67.9101113 C35.537594,68.5331865 35.0706767,69.0001038 34.5,69.0001038" id="Fill-1" fill="#F86B65"></path>
                <path d="M20.8411128,28.0150376 L19.7661654,28.1706767 C18.624812,28.3263158 17.6390977,29.156391 17.2759398,30.2977444 L17.2759398,30.2977444 C16.912782,31.4390977 17.2240602,32.6842105 18.0536165,33.5142857 L18.0536165,33.5142857 L24.0203008,39.324812 L23.4973534,42.3857143 L29.8308271,42.3857143 L30.4533835,38.806015 C30.6609023,37.8203008 30.2977444,36.782188 29.5714286,36.0569098 L29.5714286,36.0569098 L26.9774436,33.5142857 L30.5571429,32.9954887 C31.5423383,32.8398496 32.424812,32.2172932 32.8917293,31.2834586 L32.8917293,31.2834586 L34.5,28.0150376 L36.1082707,31.2834586 C36.575188,32.2172932 37.4052632,32.8398496 38.4428571,32.9954887 L38.4428571,32.9954887 L42.0225564,33.5142857 L39.4285714,36.0569098 C38.7022556,36.782188 38.3909774,37.8203008 38.5460977,38.806015 L38.5460977,38.806015 L39.1691729,42.3857143 L45.5031654,42.3857143 L44.980218,39.324812 L50.9458647,33.5142857 C51.7759398,32.6842105 52.087218,31.4390977 51.7240602,30.2977444 L51.7240602,30.2977444 C51.3609023,29.156391 50.4270677,28.3263158 49.2338346,28.1706767 L49.2338346,28.1706767 L48.1583684,28.0150376 L20.8411128,28.0150376 Z M33.0473684,40.6736842 L29.8308271,42.3857143 L39.1691729,42.3857143 L35.9526316,40.6736842 C35.4857143,40.4137669 35.018797,40.3110451 34.5,40.3110451 L34.5,40.3110451 C33.981203,40.3110451 33.5142857,40.4137669 33.0473684,40.6736842 L33.0473684,40.6736842 Z" id="Fill-3"></path>
                <path d="M31.6984962,19.5067669 L28.0150376,26.9774436 L19.7661654,28.1706767 C18.624812,28.3263158 17.6390977,29.156391 17.2759398,30.2977444 L17.2759398,30.2977444 C16.912782,31.4390977 17.2240602,32.6842105 18.0536165,33.5142857 L18.0536165,33.5142857 L24.0203008,39.324812 L22.6195489,47.5218045 C22.4120301,48.7150376 22.9308271,49.9082707 23.8646617,50.5832256 L23.8646617,50.5832256 C24.3834586,50.9463835 25.0573759,51.1528647 25.6804511,51.1528647 L25.6804511,51.1528647 C26.1992481,51.1528647 26.6661654,51.0496241 27.1330827,50.8421053 L27.1330827,50.8421053 L34.5,46.9511278 L41.8669173,50.8421053 C42.2928496,51.054812 42.7628797,51.1632406 43.2329098,51.169985 L43.2329098,51.169985 L43.3247368,51.169985 C43.9696015,51.1611654 44.609797,50.9624662 45.1353383,50.5832256 L45.1353383,50.5832256 C46.1210526,49.856391 46.5879699,48.7150376 46.3804511,47.5218045 L46.3804511,47.5218045 L44.980218,39.324812 L50.9458647,33.5142857 C51.7759398,32.6842105 52.087218,31.4390977 51.7240602,30.2977444 L51.7240602,30.2977444 C51.3609023,29.156391 50.4270677,28.3263158 49.2338346,28.1706767 L49.2338346,28.1706767 L40.9849624,26.9774436 L37.3015038,19.5067669 C36.7827068,18.4686541 35.6932331,17.7947368 34.5,17.7947368 L34.5,17.7947368 C33.3072857,17.7947368 32.2172932,18.4686541 31.6984962,19.5067669 L31.6984962,19.5067669 Z M30.4533835,38.806015 C30.6609023,37.8203008 30.2977444,36.782188 29.5714286,36.0569098 L29.5714286,36.0569098 L26.9774436,33.5142857 L30.5571429,32.9954887 C31.5423383,32.8398496 32.424812,32.2172932 32.8917293,31.2834586 L32.8917293,31.2834586 L34.5,28.0150376 L36.1082707,31.2834586 C36.575188,32.2172932 37.4052632,32.8398496 38.4428571,32.9954887 L38.4428571,32.9954887 L42.0225564,33.5142857 L39.4285714,36.0569098 C38.7022556,36.782188 38.3909774,37.8203008 38.5460977,38.806015 L38.5460977,38.806015 L39.1691729,42.3857143 L35.9526316,40.6736842 C35.4857143,40.4137669 35.018797,40.3110451 34.5,40.3110451 L34.5,40.3110451 C33.981203,40.3110451 33.5142857,40.4137669 33.0473684,40.6736842 L33.0473684,40.6736842 L29.8308271,42.3857143 L30.4533835,38.806015 Z" id="Fill-5" fill="url(#linearGradient-1)"></path>
            </g>
        </g>
    </g>
</svg>